<svg id="Grupo_558" data-name="Grupo 558" xmlns="http://www.w3.org/2000/svg" width="26.545" height="29.724" viewBox="0 0 26.545 29.724">
  <path id="Caminho_258" data-name="Caminho 258" d="M193.324,0a3.126,3.126,0,0,0,.768.21,4.388,4.388,0,0,1,3.047,3.237c.114.433-.018.706-.351.729a.382.382,0,0,1-.449-.33,3.948,3.948,0,0,0-.7-1.579,3.646,3.646,0,0,0-4.977-.7,4.043,4.043,0,0,0-.924.976c-.337.488-.706.6-1.089,0A3.379,3.379,0,0,0,186.162.94a3.5,3.5,0,0,0-4.078,2.8,5.648,5.648,0,0,0,.383,3.246,10.11,10.11,0,0,0,2.805,3.893,15.059,15.059,0,0,0,3.651,2.407.539.539,0,0,0,.487.006,15.175,15.175,0,0,0,3.4-2.184,11.629,11.629,0,0,0,2.488-2.837,8.07,8.07,0,0,0,.99-2.526c.072-.334.254-.437.59-.347.216.058.287.255.235.543a8.99,8.99,0,0,1-2,4.083,14.919,14.919,0,0,1-3.7,3.169,18.327,18.327,0,0,1-1.62.9,1.318,1.318,0,0,1-1.18.018,16.953,16.953,0,0,1-2.926-1.76,14.158,14.158,0,0,1-2.161-2,9.336,9.336,0,0,1-2.258-4.321A5.344,5.344,0,0,1,181.378,3,4.422,4.422,0,0,1,184.261.216,2.83,2.83,0,0,0,185.027,0h1.1c.14.141.33.091.5.133A4.37,4.37,0,0,1,189,1.581c.209.252.3.122.418-.035a3.792,3.792,0,0,1,1.613-1.19c.349-.141.715-.239,1.073-.356h1.218" transform="translate(-172.078 0)" fill="#977a50"/>
  <path id="Caminho_260" data-name="Caminho 260" d="M159.646,66.088a1.089,1.089,0,0,1-.321,1.65c-1.44.987-2.854,2.012-4.29,3.005a.991.991,0,0,1-1.521-.283c-1.371-1.934-2.729-3.876-4.1-5.812a1.811,1.811,0,0,1-.433-.774,1.1,1.1,0,0,1,.52-1.116c1.015-.712,2.033-1.419,3.047-2.131.416-.291.822-.594,1.24-.883a1.057,1.057,0,0,1,1.555.268c.082.116.116.184.287.059.949-.691,1.912-1.362,2.879-2.027a2.977,2.977,0,0,1,2.206-.381c.56.08,1.118.167,1.677.25s1.139.164,1.708.251,1.136.172,1.7.273a4.5,4.5,0,0,1,1.309.294,1.9,1.9,0,0,1,.746,2.665c-.036.057-.1.1-.071.177.04.1.133.039.2.052a.621.621,0,0,0,.682-.332c.757-1.105,1.535-2.2,2.306-3.292a1.879,1.879,0,0,1,1.578-.607,1.7,1.7,0,0,1,1.489,1.431.153.153,0,0,0,.129.132,1.636,1.636,0,0,1,1.308,1.361,1.733,1.733,0,0,1-.737,1.791c-1.175.845-2.347,1.7-3.553,2.5a3.95,3.95,0,0,1-2.173.683c-1.015.006-2.03,0-3.045-.006a.429.429,0,0,1-.46-.432c0-.31.13-.445.46-.445.706,0,1.415-.03,2.117.022a4.71,4.71,0,0,0,3.356-1.029c.891-.688,1.836-1.308,2.754-1.961a.956.956,0,0,0,.288-1.308,1,1,0,0,0-1.372-.156c-1.123.8-2.252,1.6-3.377,2.4a.991.991,0,0,1-.608.193,25.11,25.11,0,0,1-2.758-.232c-.51-.059-1.025-.08-1.538-.121-.474-.038-.952-.053-1.42-.128a.45.45,0,0,1-.36-.706.35.35,0,0,1,.335-.152c.638.017,1.269.128,1.9.157a3.422,3.422,0,0,0,1.189.027,1.025,1.025,0,0,0,.774-1.13,1.038,1.038,0,0,0-.872-.865c-.941-.112-1.872-.3-2.808-.45-.577-.09-1.159-.144-1.735-.238-.529-.086-1.056-.18-1.591-.234a2.437,2.437,0,0,0-1.7.563c-.788.565-1.57,1.138-2.363,1.7-.154.109-.206.158-.073.342.986,1.371,1.958,2.753,2.928,4.136.077.11.117.128.241.065a8.977,8.977,0,0,1,4.614-.922.409.409,0,0,1,.4.483.363.363,0,0,1-.43.38,10.322,10.322,0,0,0-2.281.174,6.826,6.826,0,0,0-1.645.541l-.3.142m-2.39,2c-.025-.028-.053-.055-.075-.086-.31-.429-.623-.856-.928-1.288q-1.754-2.487-3.5-4.979c-.072-.1-.108-.124-.217-.039-.282.219-.578.42-.87.625-.539.376-1.083.744-1.617,1.125-.162.116-.275.24-.1.471.4.523.776,1.07,1.156,1.61q1.555,2.212,3.1,4.429a.238.238,0,0,0,.384.064q1.285-.916,2.57-1.833a.225.225,0,0,0,.09-.1m.738-.485c.021-.017.042-.037.065-.053.254-.177.5-.363.765-.528.229-.145.234-.281.078-.5-.989-1.381-1.966-2.771-2.947-4.158-.413-.585-.824-1.172-1.239-1.757-.121-.171-.269-.277-.478-.131-.223.156-.437.326-.666.474-.172.111-.185.2-.06.372.9,1.249,1.781,2.508,2.669,3.763.562.794,1.122,1.588,1.688,2.378.033.047.03.14.125.139m11.813-6.417.051.045c.563-.4,1.125-.8,1.692-1.2a11.189,11.189,0,0,1,1.489-1c.153-.074.155-.131.113-.245A.916.916,0,0,0,172,58.319c-.352.147-.5.469-.7.746-.5.7-1,1.412-1.5,2.119" transform="translate(-148.971 -41.26)" fill="#977a50"/>
</svg>
