<svg xmlns="http://www.w3.org/2000/svg" width="23.179" height="23.18" viewBox="0 0 23.179 23.18">
  <path id="_073648578491af67fdc6a37bce022a16" data-name="073648578491af67fdc6a37bce022a16" d="M7.727,11.59a3.863,3.863,0,1,1,3.863,3.864A3.863,3.863,0,0,1,7.727,11.59m-2.089,0A5.951,5.951,0,1,0,11.59,5.639,5.951,5.951,0,0,0,5.639,11.59M16.386,5.4a1.391,1.391,0,1,0,1.391-1.39A1.391,1.391,0,0,0,16.386,5.4M6.907,21.024a6.4,6.4,0,0,1-2.152-.4,3.6,3.6,0,0,1-1.333-.867,3.582,3.582,0,0,1-.867-1.332,6.4,6.4,0,0,1-.4-2.152c-.056-1.222-.067-1.589-.067-4.684s.012-3.461.067-4.684a6.432,6.432,0,0,1,.4-2.152,3.6,3.6,0,0,1,.867-1.333,3.578,3.578,0,0,1,1.333-.867,6.4,6.4,0,0,1,2.152-.4C8.129,2.1,8.5,2.088,11.59,2.088s3.461.012,4.684.067a6.432,6.432,0,0,1,2.152.4,3.593,3.593,0,0,1,1.333.867,3.6,3.6,0,0,1,.867,1.333,6.4,6.4,0,0,1,.4,2.152c.056,1.223.067,1.589.067,4.684s-.011,3.461-.067,4.684a6.426,6.426,0,0,1-.4,2.152,3.837,3.837,0,0,1-2.2,2.2,6.4,6.4,0,0,1-2.152.4c-1.222.056-1.589.067-4.684.067s-3.461-.011-4.683-.067M6.812.07A8.5,8.5,0,0,0,4,.609,5.687,5.687,0,0,0,1.945,1.945,5.671,5.671,0,0,0,.609,4,8.5,8.5,0,0,0,.07,6.812C.013,8.047,0,8.442,0,11.59s.013,3.542.07,4.778a8.5,8.5,0,0,0,.538,2.813,5.667,5.667,0,0,0,1.337,2.053A5.684,5.684,0,0,0,4,22.571a8.506,8.506,0,0,0,2.813.538c1.237.056,1.631.07,4.778.07s3.542-.013,4.778-.07a8.5,8.5,0,0,0,2.813-.538,5.926,5.926,0,0,0,3.39-3.39,8.477,8.477,0,0,0,.538-2.813c.056-1.237.069-1.631.069-4.778s-.013-3.542-.069-4.778A8.5,8.5,0,0,0,22.571,4a5.7,5.7,0,0,0-1.337-2.053A5.684,5.684,0,0,0,19.182.609,8.487,8.487,0,0,0,16.369.07C15.133.014,14.738,0,11.591,0S8.048.013,6.812.07" fill="#fff"/>
</svg>
