<svg xmlns="http://www.w3.org/2000/svg" width="18.279" height="18.279" viewBox="0 0 18.279 18.279">
  <path id="af2da8f3726c5aa836b9ea2eeab70e0c" d="M16.02,5.162h0a1.1,1.1,0,1,0,1.1,1.1A1.1,1.1,0,0,0,16.02,5.162Zm4.2,2.212a6.937,6.937,0,0,0-.42-2.221,4.515,4.515,0,0,0-1.06-1.618,4.3,4.3,0,0,0-1.618-1.051,6.672,6.672,0,0,0-2.221-.43C13.936,2,13.625,2,11.139,2s-2.8,0-3.765.055a6.672,6.672,0,0,0-2.221.43A4.369,4.369,0,0,0,3.535,3.535,4.3,4.3,0,0,0,2.484,5.153a6.672,6.672,0,0,0-.43,2.221C2,8.343,2,8.653,2,11.139s0,2.8.055,3.765a6.672,6.672,0,0,0,.43,2.221,4.3,4.3,0,0,0,1.051,1.618,4.369,4.369,0,0,0,1.618,1.051,6.672,6.672,0,0,0,2.221.43c.969.055,1.28.055,3.765.055s2.8,0,3.765-.055a6.672,6.672,0,0,0,2.221-.43,4.3,4.3,0,0,0,1.618-1.051,4.433,4.433,0,0,0,1.06-1.618,6.937,6.937,0,0,0,.42-2.221c0-.969.055-1.28.055-3.765S20.279,8.343,20.224,7.374ZM18.579,14.8a5.127,5.127,0,0,1-.311,1.7,2.8,2.8,0,0,1-.685,1.051,2.915,2.915,0,0,1-1.051.685,5.127,5.127,0,0,1-1.7.311c-.914.046-1.252.055-3.656.055s-2.742,0-3.656-.055a5.237,5.237,0,0,1-1.773-.274,2.989,2.989,0,0,1-1.005-.685,2.742,2.742,0,0,1-.676-1.051A5.063,5.063,0,0,1,3.7,14.8c0-.914-.055-1.252-.055-3.656s0-2.742.055-3.656a5.063,5.063,0,0,1,.32-1.736,2.742,2.742,0,0,1,.722-1.005,2.87,2.87,0,0,1,1.005-.731A5.237,5.237,0,0,1,7.484,3.7c.914,0,1.252-.055,3.656-.055s2.742,0,3.656.055a5.127,5.127,0,0,1,1.7.311,2.8,2.8,0,0,1,1.088.731,2.8,2.8,0,0,1,.685,1.005,5.127,5.127,0,0,1,.311,1.736c.046.914.055,1.252.055,3.656S18.624,13.881,18.579,14.8ZM11.139,6.451a4.679,4.679,0,1,0,3.324,1.367A4.688,4.688,0,0,0,11.139,6.451Zm0,7.732a3.043,3.043,0,1,1,3.043-3.043,3.043,3.043,0,0,1-3.043,3.043Z" transform="translate(-2 -2)" fill="#4c1c72"/>
</svg>
