<svg xmlns="http://www.w3.org/2000/svg" width="174.056" height="10.919" viewBox="0 0 174.056 10.919">
  <g id="Grupo_21" data-name="Grupo 21" transform="translate(-334.275 -4645)">
    <path id="Caminho_149" data-name="Caminho 149" d="M298.376,9.425l-2.457-3.2a.445.445,0,0,0-.706,0l-2.457,3.2a1.051,1.051,0,0,1-1.942-.56V2.072A2.072,2.072,0,0,1,292.887,0h5.359a2.072,2.072,0,0,1,2.072,2.072V8.865a1.051,1.051,0,0,1-1.942.56" transform="translate(208.014 4646)" fill="#a06dd1"/>
    <g id="Grupo_18" data-name="Grupo 18" transform="translate(334.275 4645)">
      <path id="Caminho_147" data-name="Caminho 147" d="M11.211,4.581A2.745,2.745,0,0,1,10.4,6.529L6.416,10.517a1.145,1.145,0,0,1-1.62,0L.807,6.529a2.756,2.756,0,1,1,3.9-3.9l.9.9.852-.852a2.8,2.8,0,0,1,3.935-.06,2.744,2.744,0,0,1,.818,1.959" transform="translate(0 -1.287)" fill="#a06dd1"/>
      <path id="Caminho_148" data-name="Caminho 148" d="M352.687.006A4.955,4.955,0,0,1,357.1,7.212l1.076,2a.464.464,0,0,1-.543.664l-2.338-.7a4.956,4.956,0,1,1-2.61-9.169" transform="translate(-321.103 -0.006)" fill="#a06dd1"/>
      <g id="Grupo_17" data-name="Grupo 17" transform="translate(52.318 0)">
        <path id="Caminho_150" data-name="Caminho 150" d="M182.231.645a1.465,1.465,0,0,0-.9-.043l-7.326,1.963a1.484,1.484,0,0,0-.267,2.767L176.381,6.5Z" transform="translate(-172.906 -0.551)" fill="#a06dd1"/>
        <path id="Caminho_151" data-name="Caminho 151" d="M184.924,10.579l1.963-7.326a1.465,1.465,0,0,0-.043-.9L180.994,8.2l1.164,2.642a1.484,1.484,0,0,0,2.767-.267" transform="translate(-176.644 -1.384)" fill="#a06dd1"/>
      </g>
    </g>
  </g>
</svg>
