<?xml version="1.0" encoding="UTF-8"?>
<svg id="Camada_2" data-name="Camada 2" xmlns="http://www.w3.org/2000/svg" xmlns:xlink="http://www.w3.org/1999/xlink" viewBox="0 0 298.93 112.47">
  <defs>
    <style>
      .cls-1 {
        fill: url(#Gradiente_sem_nome_6);
      }

      .cls-2 {
        fill: #f4e9ff;
      }

      .cls-3 {
        fill: #a06dd1;
      }

      .cls-4 {
        fill: url(#Gradiente_sem_nome_6-2);
      }
    </style>
    <linearGradient id="Gradiente_sem_nome_6" data-name="Gradiente sem nome 6" x1="34.55" y1="8.27" x2="51.08" y2="8.27" gradientUnits="userSpaceOnUse">
      <stop offset="0" stop-color="#977a50"/>
      <stop offset="1" stop-color="#ead48b"/>
    </linearGradient>
    <linearGradient id="Gradiente_sem_nome_6-2" data-name="Gradiente sem nome 6" x1="0" y1="65.99" x2="85.1" y2="65.99" xlink:href="#Gradiente_sem_nome_6"/>
  </defs>
  <g id="Camada_1-2" data-name="Camada 1">
    <g>
      <g>
        <path class="cls-1" d="m42.82,16.53c.17-.9.82-3.73,3.4-5.95,1.89-1.63,3.9-2.14,4.87-2.31-.62,0-3.38-.11-5.68-2.31-2.48-2.37-2.58-5.4-2.58-5.95,0,0-.33,3.64-2.85,5.95-2.17,1.99-4.65,2.26-5.41,2.31.91.16,3.18.69,5.22,2.61,2.31,2.18,2.89,4.78,3.05,5.66Zm-1.97-9.61c.81-.74,1.42-1.54,1.88-2.34.43.78,1,1.58,1.77,2.32.75.72,1.54,1.24,2.31,1.63-.48.3-.97.65-1.45,1.06-1.14.98-1.96,2.08-2.54,3.12-.51-.93-1.21-1.89-2.16-2.79-.65-.61-1.32-1.1-1.98-1.5.72-.37,1.45-.86,2.16-1.51Z"/>
        <path class="cls-4" d="m73.96,19.51c-11.06,0-21.74,3.4-30.9,9.84-9.38-6.44-20.32-9.84-31.65-9.84H0v58.09c0,19.22,15.32,34.87,34.15,34.87h1.26l-.31-1.24c-2.33-9.3.38-19.22,7.08-25.89.34-.34.71-.69,1.15-1.07.68.63,1.33,1.3,1.93,1.99,9.18,10.6,5.72,24.38,5.57,24.96l-.33,1.26h1.26c18.38,0,33.33-15.64,33.33-34.87V19.51h-11.14Zm-30.9,12.28c3.73,2.69,7.12,5.85,10.09,9.4-6.6.88-13.45.92-20.05.14,2.93-3.61,6.28-6.82,9.96-9.55ZM1.97,21.51h9.44c10.68,0,21.03,3.14,29.95,9.1-3.92,2.98-7.45,6.49-10.51,10.43-15.02-2.22-26.61-8.61-28.88-15.93v-3.59Zm38.84,62.4c-6.84,6.82-9.85,16.96-7.9,26.54-17.09-.67-30.94-15.33-30.94-32.85V28.83c4.04,6.71,14.18,11.91,27.5,14.04-7.22,10.1-11.04,22.1-11.04,34.72v1.31l1.22-.35c7.81-2.21,15.88-.61,22.17,4.39-.38.34-.71.65-1.02.96Zm-14.28-8.3c-2.06,0-4.13.24-6.15.71.26-12.11,4.16-23.55,11.28-33.12,7.55.99,15.62.92,23-.13,7.38,9.61,11.41,21.12,11.66,33.31-3.5-.63-13.94-1.71-22.96,5.29-4.75-3.9-10.72-6.05-16.83-6.05Zm56.64,1.99c0,17.52-13.51,32.18-30.2,32.85.73-3.96,2.03-15.94-6.27-25.53-.58-.67-1.19-1.31-1.83-1.92,10-7.52,21.69-4.56,22.19-4.43l1.23.32v-1.29c0-12.7-3.95-24.75-11.43-34.88,12.69-2.19,22.39-7.29,26.3-13.77v48.65Zm0-52.5c-2.23,7.19-13.1,13.36-27.73,15.75-3.11-3.88-6.7-7.34-10.66-10.28,8.7-5.93,18.78-9.07,29.19-9.07h9.21v3.6Z"/>
      </g>
      <g>
        <g>
          <path class="cls-3" d="m126.15,109.93c-1.99,0-3.51-1.49-3.51-3.62s1.52-3.62,3.51-3.62,3.51,1.5,3.51,3.62-1.51,3.62-3.51,3.62Zm0-.62c1.57,0,2.78-1.14,2.78-3s-1.21-2.99-2.78-2.99-2.78,1.14-2.78,2.99,1.21,3,2.78,3Z"/>
          <path class="cls-3" d="m138.83,106.33c0,2.2-1.39,3.53-3.75,3.53h-2.1v-7.09h2.1c2.36,0,3.75,1.34,3.75,3.56Zm-3.75,2.94c2.01,0,3.03-1.12,3.03-2.94s-1.02-2.97-3.03-2.97h-1.39v5.92h1.39Z"/>
          <path class="cls-3" d="m145.35,109.93c-1.99,0-3.51-1.49-3.51-3.62s1.52-3.62,3.51-3.62,3.51,1.5,3.51,3.62-1.51,3.62-3.51,3.62Zm0-.62c1.57,0,2.78-1.14,2.78-3s-1.21-2.99-2.78-2.99-2.78,1.14-2.78,2.99,1.21,3,2.78,3Z"/>
          <path class="cls-3" d="m157.52,102.77v7.09h-.71l-3.92-5.97v5.97h-.71v-7.09h.71l3.92,5.96v-5.96h.71Z"/>
          <path class="cls-3" d="m160.65,102.77h4.66v.59h-1.97v6.5h-.71v-6.5h-1.98v-.59Z"/>
          <path class="cls-3" d="m171.64,109.93c-1.99,0-3.51-1.49-3.51-3.62s1.52-3.62,3.51-3.62,3.51,1.5,3.51,3.62-1.51,3.62-3.51,3.62Zm0-.62c1.57,0,2.78-1.14,2.78-3s-1.21-2.99-2.78-2.99-2.78,1.14-2.78,2.99,1.21,3,2.78,3Z"/>
          <path class="cls-3" d="m179.18,102.77v6.51h2.55v.58h-3.26v-7.09h.71Z"/>
          <path class="cls-3" d="m187.95,109.93c-1.99,0-3.51-1.49-3.51-3.62s1.52-3.62,3.51-3.62,3.51,1.5,3.51,3.62-1.51,3.62-3.51,3.62Zm0-.62c1.57,0,2.78-1.14,2.78-3s-1.21-2.99-2.78-2.99-2.78,1.14-2.78,2.99,1.21,3,2.78,3Z"/>
          <path class="cls-3" d="m201.2,104.84h-.83c-.4-.91-1.26-1.5-2.39-1.5-1.57,0-2.78,1.14-2.78,2.97s1.21,2.98,2.78,2.98c1.49,0,2.59-1,2.7-2.62h-2.98v-.58h3.74v.52c-.11,1.88-1.51,3.32-3.45,3.32s-3.51-1.49-3.51-3.62,1.52-3.62,3.51-3.62c1.52,0,2.72.8,3.23,2.15Z"/>
          <path class="cls-3" d="m204.74,102.77h.71v7.09h-.71v-7.09Z"/>
          <path class="cls-3" d="m213.2,108.18h-3.23l-.62,1.68h-.75l2.59-7h.8l2.58,7h-.75l-.62-1.68Zm-1.61-4.42l-1.4,3.84h2.8l-1.4-3.84Z"/>
          <path class="cls-3" d="m226.23,103.35h-2.99v2.65h2.69v.59h-2.69v2.69h2.99v.59h-3.7v-7.1h3.7v.59Z"/>
          <path class="cls-3" d="m226.16,103.35h-2.99v2.65h2.69v.59h-2.69v2.69h2.99v.59h-3.7v-7.1h3.7v.59Z"/>
          <path class="cls-3" d="m231.74,109.93c-1.42,0-2.35-.81-2.39-1.9h.75c.06.59.5,1.3,1.64,1.3.98,0,1.56-.58,1.56-1.31,0-2.09-3.9-.77-3.9-3.44,0-1.1.9-1.9,2.27-1.9s2.16.75,2.28,1.72h-.77c-.08-.5-.56-1.1-1.54-1.12-.83,0-1.52.45-1.52,1.27,0,2.05,3.9.79,3.9,3.43,0,.96-.78,1.94-2.28,1.94Z"/>
          <path class="cls-3" d="m236.91,102.77h4.66v.59h-1.97v6.5h-.71v-6.5h-1.98v-.59Z"/>
          <path class="cls-3" d="m248.41,103.35h-2.99v2.65h2.69v.59h-2.69v2.69h2.99v.59h-3.7v-7.1h3.7v.59Zm-1.06-2.76v.64l-2.08,1.21v-.55l2.08-1.3Z"/>
          <path class="cls-3" d="m251.33,102.77h4.66v.59h-1.97v6.5h-.71v-6.5h-1.98v-.59Z"/>
          <path class="cls-3" d="m259.14,102.77h.71v7.09h-.71v-7.09Z"/>
          <path class="cls-3" d="m266.63,102.69c1.58,0,2.76.79,3.27,2.15h-.83c-.39-.94-1.23-1.53-2.43-1.53-1.55,0-2.74,1.15-2.74,3s1.19,2.99,2.74,2.99c1.21,0,2.04-.59,2.43-1.51h.83c-.51,1.34-1.68,2.13-3.27,2.13-1.97,0-3.47-1.48-3.47-3.61s1.5-3.62,3.47-3.62Z"/>
          <path class="cls-3" d="m277.44,108.18h-3.23l-.62,1.68h-.75l2.59-7h.8l2.58,7h-.75l-.62-1.68Zm-1.61-4.42l-1.4,3.84h2.8l-1.4-3.84Z"/>
        </g>
        <g>
          <g>
            <polygon class="cls-2" points="124.38 19.62 114.51 19.62 114.51 20.46 118.4 22.04 118.4 85.36 158.36 85.36 158.36 83.58 124.38 83.58 124.38 19.62"/>
            <polygon class="cls-2" points="162.15 34.89 166.41 36.55 166.41 85.36 172.33 85.36 172.33 33.95 162.15 33.95 162.15 34.89"/>
            <path class="cls-2" d="m169.42,19.52c-1.18,0-2.15.38-2.91,1.14-.76.76-1.14,1.73-1.14,2.91s.38,2.15,1.14,2.91c.76.76,1.73,1.14,2.91,1.14,1.11,0,2.06-.38,2.86-1.14.79-.76,1.19-1.73,1.19-2.91s-.4-2.14-1.19-2.91c-.8-.76-1.75-1.14-2.86-1.14Z"/>
            <polygon class="cls-2" points="185.83 20.31 189.98 21.8 189.98 85.46 196 85.46 196 19.62 185.83 19.62 185.83 20.31"/>
            <path class="cls-2" d="m267.09,31.76c1.83-3.01,4.1-5.38,6.8-7.11,2.56-1.63,5.26-2.45,8.1-2.45,3.18,0,6.2.97,9.04,2.91,2.84,1.94,5.05,4.63,6.64,8.08.14-.17.4-.34.78-.52.38-.17.54-.34.47-.52-2.01-4.31-4.69-7.47-8.05-9.5-3.36-2.02-6.87-3.03-10.54-3.03-4.36,0-8.45,1.25-12.25,3.75-4.36,2.84-7.62,6.98-9.76,12.41-2.15,5.43-3.22,11.16-3.22,17.19s1.07,11.76,3.22,17.19c1.74,4.4,4.24,7.9,7.44,10.6-3.47,1.75-7.06,3.42-10.82,4.45-1.51.41-3.07.73-4.63.74-.65,0-1.31-.05-1.95-.19-.53-.12-1.34-.23-1.69-.68-.37-.47-.49-1.17-.49-1.75.15-13.39.3-26.78.45-40.17.05-4.3.08-8.73-1.48-12.74-1.66-4.28-5.13-7.81-9.37-9.56-4.24-1.74-9.2-1.66-13.38.22-6.26,2.81-10.3,9.28-11.76,15.99.54.12,1.08.25,1.62.37,1.27-4.62,3.45-9.15,7.11-12.25,3.66-3.1,8.99-4.5,13.4-2.61,4.71,2.01,7.37,7.28,7.7,12.38.12,1.84-.02,3.71-.6,5.46-1.28,3.86-4.58,6.76-8.18,8.66-3.6,1.91-7.56,3-11.34,4.49-3.79,1.5-7.53,3.5-10,6.74-2.08,2.73-3.11,6.17-3.28,9.6-.27,5.33,1.68,11.02,6.03,14.12,2.6,1.85,5.86,2.65,9.05,2.65,7.82,0,15.42-4.91,18.62-12.04.63,1.52,1.25,3.04,1.88,4.57.6,1.46,1.12,2.97,1.79,4.4,1.27,2.68,4.26,3.27,6.94,3.06,3.47-.27,6.87-1.51,10.06-2.83.88-.36,1.75-.75,2.62-1.14.44-.2.88-.4,1.31-.61.14-.07,1.22-.69,1.31-.63.47.36.91.76,1.41,1.09,3.81,2.5,7.89,3.75,12.25,3.75.98,0,1.95-.07,2.91-.22,4.07-.61,7.14-2.51,7.63-2.82,3.08-1.95,5.77-4.85,7.15-8.25.46-1.13.84-2.57.34-3.72-.48-1.12-1.39-2.06-2.49-2.58-1.53-.73-3.33-.65-4.95-.33-1.88.37-3.68,1.07-5.42,1.85-1.38.62-2.73,1.32-4.08,2.02-2.34,1.08-6.43,3.53-11.05,6.06-1.22-1.25-2.32-2.65-3.29-4.22-1.83-2.97-3.2-6.27-4.1-9.89-.9-3.62-1.35-7.38-1.35-11.31s.45-7.67,1.35-11.24c.9-3.57,2.27-6.87,4.1-9.88Zm-26.43,37.37c-.14,1.88-.69,3.7-1.66,5.45-.97,1.75-2.18,3.32-3.63,4.68-1.45,1.37-3.08,2.44-4.88,3.21-1.8.77-3.63,1.16-5.5,1.16-.97,0-1.91-.11-2.8-.32-.9-.21-1.76-.58-2.6-1.09-1.59-.94-2.89-2.31-3.89-4.1-1-1.8-1.66-3.76-1.97-5.9-.31-2.14-.28-4.27.1-6.41.38-2.14,1.12-3.98,2.23-5.52,1.66-2.22,3.69-3.89,6.08-5,2.39-1.11,4.78-2.16,7.16-3.14,2.39-.98,4.62-2.2,6.7-3.66,2.08-1.45,3.63-3.59,4.67-6.41v27.07Zm41.25,4.03c2.97-1.57,6.05-3.29,9.37-3.97,1.5-.31,3.17-.4,4.57.33,1.75.91,2.72,2.86,1.93,4.74-.6,1.42-1.77,2.58-2.89,3.61-1.19,1.09-2.49,2.08-3.86,2.94-.76.48-3.56,2.17-6.38,2.67-.87.16-1.76.23-2.66.23-2.84,0-5.54-.82-8.1-2.45-.95-.64-1.82-1.37-2.66-2.15,4.53-2.42,8.48-4.78,10.69-5.95Z"/>
          </g>
          <g>
            <polygon class="cls-2" points="124.38 19.62 114.51 19.62 114.51 20.46 118.4 22.04 118.4 85.36 158.36 85.36 158.36 83.58 124.38 83.58 124.38 19.62"/>
            <polygon class="cls-2" points="162.15 34.89 166.41 36.55 166.41 85.36 172.33 85.36 172.33 33.95 162.15 33.95 162.15 34.89"/>
            <path class="cls-2" d="m169.42,19.52c-1.18,0-2.15.38-2.91,1.14-.76.76-1.14,1.73-1.14,2.91s.38,2.15,1.14,2.91c.76.76,1.73,1.14,2.91,1.14,1.11,0,2.06-.38,2.86-1.14.79-.76,1.19-1.73,1.19-2.91s-.4-2.14-1.19-2.91c-.8-.76-1.75-1.14-2.86-1.14Z"/>
            <polygon class="cls-2" points="185.83 20.31 189.98 21.8 189.98 85.46 196 85.46 196 19.62 185.83 19.62 185.83 20.31"/>
            <path class="cls-2" d="m267.09,31.76c1.83-3.01,4.1-5.38,6.8-7.11,2.56-1.63,5.26-2.45,8.1-2.45,3.18,0,6.2.97,9.04,2.91,2.84,1.94,5.05,4.63,6.64,8.08.14-.17.4-.34.78-.52.38-.17.54-.34.47-.52-2.01-4.31-4.69-7.47-8.05-9.5-3.36-2.02-6.87-3.03-10.54-3.03-4.36,0-8.45,1.25-12.25,3.75-4.36,2.84-7.62,6.98-9.76,12.41-2.15,5.43-3.22,11.16-3.22,17.19s1.07,11.76,3.22,17.19c1.74,4.4,4.24,7.9,7.44,10.6-3.47,1.75-7.06,3.42-10.82,4.45-1.51.41-3.07.73-4.63.74-.65,0-1.31-.05-1.95-.19-.53-.12-1.34-.23-1.69-.68-.37-.47-.49-1.17-.49-1.75.15-13.39.3-26.78.45-40.17.05-4.3.08-8.73-1.48-12.74-1.66-4.28-5.13-7.81-9.37-9.56-4.24-1.74-9.2-1.66-13.38.22-6.26,2.81-10.3,9.28-11.76,15.99.54.12,1.08.25,1.62.37,1.27-4.62,3.45-9.15,7.11-12.25,3.66-3.1,8.99-4.5,13.4-2.61,4.71,2.01,7.37,7.28,7.7,12.38.12,1.84-.02,3.71-.6,5.46-1.28,3.86-4.58,6.76-8.18,8.66-3.6,1.91-7.56,3-11.34,4.49-3.79,1.5-7.53,3.5-10,6.74-2.08,2.73-3.11,6.17-3.28,9.6-.27,5.33,1.68,11.02,6.03,14.12,2.6,1.85,5.86,2.65,9.05,2.65,7.82,0,15.42-4.91,18.62-12.04.63,1.52,1.25,3.04,1.88,4.57.6,1.46,1.12,2.97,1.79,4.4,1.27,2.68,4.26,3.27,6.94,3.06,3.47-.27,6.87-1.51,10.06-2.83.88-.36,1.75-.75,2.62-1.14.44-.2.88-.4,1.31-.61.14-.07,1.22-.69,1.31-.63.47.36.91.76,1.41,1.09,3.81,2.5,7.89,3.75,12.25,3.75.98,0,1.95-.07,2.91-.22,4.07-.61,7.14-2.51,7.63-2.82,3.08-1.95,5.77-4.85,7.15-8.25.46-1.13.84-2.57.34-3.72-.48-1.12-1.39-2.06-2.49-2.58-1.53-.73-3.33-.65-4.95-.33-1.88.37-3.68,1.07-5.42,1.85-1.38.62-2.73,1.32-4.08,2.02-2.34,1.08-6.43,3.53-11.05,6.06-1.22-1.25-2.32-2.65-3.29-4.22-1.83-2.97-3.2-6.27-4.1-9.89-.9-3.62-1.35-7.38-1.35-11.31s.45-7.67,1.35-11.24c.9-3.57,2.27-6.87,4.1-9.88Zm-26.43,37.37c-.14,1.88-.69,3.7-1.66,5.45-.97,1.75-2.18,3.32-3.63,4.68-1.45,1.37-3.08,2.44-4.88,3.21-1.8.77-3.63,1.16-5.5,1.16-.97,0-1.91-.11-2.8-.32-.9-.21-1.76-.58-2.6-1.09-1.59-.94-2.89-2.31-3.89-4.1-1-1.8-1.66-3.76-1.97-5.9-.31-2.14-.28-4.27.1-6.41.38-2.14,1.12-3.98,2.23-5.52,1.66-2.22,3.69-3.89,6.08-5,2.39-1.11,4.78-2.16,7.16-3.14,2.39-.98,4.62-2.2,6.7-3.66,2.08-1.45,3.63-3.59,4.67-6.41v27.07Zm41.25,4.03c2.97-1.57,6.05-3.29,9.37-3.97,1.5-.31,3.17-.4,4.57.33,1.75.91,2.72,2.86,1.93,4.74-.6,1.42-1.77,2.58-2.89,3.61-1.19,1.09-2.49,2.08-3.86,2.94-.76.48-3.56,2.17-6.38,2.67-.87.16-1.76.23-2.66.23-2.84,0-5.54-.82-8.1-2.45-.95-.64-1.82-1.37-2.66-2.15,4.53-2.42,8.48-4.78,10.69-5.95Z"/>
          </g>
          <g>
            <polygon class="cls-2" points="124.38 19.62 114.51 19.62 114.51 20.46 118.4 22.04 118.4 85.36 158.36 85.36 158.36 83.58 124.38 83.58 124.38 19.62"/>
            <polygon class="cls-2" points="162.15 34.89 166.41 36.55 166.41 85.36 172.33 85.36 172.33 33.95 162.15 33.95 162.15 34.89"/>
            <path class="cls-2" d="m169.42,19.52c-1.18,0-2.15.38-2.91,1.14-.76.76-1.14,1.73-1.14,2.91s.38,2.15,1.14,2.91c.76.76,1.73,1.14,2.91,1.14,1.11,0,2.06-.38,2.86-1.14.79-.76,1.19-1.73,1.19-2.91s-.4-2.14-1.19-2.91c-.8-.76-1.75-1.14-2.86-1.14Z"/>
            <polygon class="cls-2" points="185.83 20.31 189.98 21.8 189.98 85.46 196 85.46 196 19.62 185.83 19.62 185.83 20.31"/>
            <path class="cls-2" d="m267.09,31.76c1.83-3.01,4.1-5.38,6.8-7.11,2.56-1.63,5.26-2.45,8.1-2.45,3.18,0,6.2.97,9.04,2.91,2.84,1.94,5.05,4.63,6.64,8.08.14-.17.4-.34.78-.52.38-.17.54-.34.47-.52-2.01-4.31-4.69-7.47-8.05-9.5-3.36-2.02-6.87-3.03-10.54-3.03-4.36,0-8.45,1.25-12.25,3.75-4.36,2.84-7.62,6.98-9.76,12.41-2.15,5.43-3.22,11.16-3.22,17.19s1.07,11.76,3.22,17.19c1.74,4.4,4.24,7.9,7.44,10.6-3.47,1.75-7.06,3.42-10.82,4.45-1.51.41-3.07.73-4.63.74-.65,0-1.31-.05-1.95-.19-.53-.12-1.34-.23-1.69-.68-.37-.47-.49-1.17-.49-1.75.15-13.39.3-26.78.45-40.17.05-4.3.08-8.73-1.48-12.74-1.66-4.28-5.13-7.81-9.37-9.56-4.24-1.74-9.2-1.66-13.38.22-6.26,2.81-10.3,9.28-11.76,15.99.54.12,1.08.25,1.62.37,1.27-4.62,3.45-9.15,7.11-12.25,3.66-3.1,8.99-4.5,13.4-2.61,4.71,2.01,7.37,7.28,7.7,12.38.12,1.84-.02,3.71-.6,5.46-1.28,3.86-4.58,6.76-8.18,8.66-3.6,1.91-7.56,3-11.34,4.49-3.79,1.5-7.53,3.5-10,6.74-2.08,2.73-3.11,6.17-3.28,9.6-.27,5.33,1.68,11.02,6.03,14.12,2.6,1.85,5.86,2.65,9.05,2.65,7.82,0,15.42-4.91,18.62-12.04.63,1.52,1.25,3.04,1.88,4.57.6,1.46,1.12,2.97,1.79,4.4,1.27,2.68,4.26,3.27,6.94,3.06,3.47-.27,6.87-1.51,10.06-2.83.88-.36,1.75-.75,2.62-1.14.44-.2.88-.4,1.31-.61.14-.07,1.22-.69,1.31-.63.47.36.91.76,1.41,1.09,3.81,2.5,7.89,3.75,12.25,3.75.98,0,1.95-.07,2.91-.22,4.07-.61,7.14-2.51,7.63-2.82,3.08-1.95,5.77-4.85,7.15-8.25.46-1.13.84-2.57.34-3.72-.48-1.12-1.39-2.06-2.49-2.58-1.53-.73-3.33-.65-4.95-.33-1.88.37-3.68,1.07-5.42,1.85-1.38.62-2.73,1.32-4.08,2.02-2.34,1.08-6.43,3.53-11.05,6.06-1.22-1.25-2.32-2.65-3.29-4.22-1.83-2.97-3.2-6.27-4.1-9.89-.9-3.62-1.35-7.38-1.35-11.31s.45-7.67,1.35-11.24c.9-3.57,2.27-6.87,4.1-9.88Zm-26.43,37.37c-.14,1.88-.69,3.7-1.66,5.45-.97,1.75-2.18,3.32-3.63,4.68-1.45,1.37-3.08,2.44-4.88,3.21-1.8.77-3.63,1.16-5.5,1.16-.97,0-1.91-.11-2.8-.32-.9-.21-1.76-.58-2.6-1.09-1.59-.94-2.89-2.31-3.89-4.1-1-1.8-1.66-3.76-1.97-5.9-.31-2.14-.28-4.27.1-6.41.38-2.14,1.12-3.98,2.23-5.52,1.66-2.22,3.69-3.89,6.08-5,2.39-1.11,4.78-2.16,7.16-3.14,2.39-.98,4.62-2.2,6.7-3.66,2.08-1.45,3.63-3.59,4.67-6.41v27.07Zm41.25,4.03c2.97-1.57,6.05-3.29,9.37-3.97,1.5-.31,3.17-.4,4.57.33,1.75.91,2.72,2.86,1.93,4.74-.6,1.42-1.77,2.58-2.89,3.61-1.19,1.09-2.49,2.08-3.86,2.94-.76.48-3.56,2.17-6.38,2.67-.87.16-1.76.23-2.66.23-2.84,0-5.54-.82-8.1-2.45-.95-.64-1.82-1.37-2.66-2.15,4.53-2.42,8.48-4.78,10.69-5.95Z"/>
          </g>
        </g>
      </g>
    </g>
  </g>
</svg>