<?xml version="1.0" encoding="UTF-8"?>
<svg id="Camada_2" data-name="Camada 2" xmlns="http://www.w3.org/2000/svg" xmlns:xlink="http://www.w3.org/1999/xlink" viewBox="0 0 305.64 114.99">
  <defs>
    <style>
      .cls-1 {
        fill: url(#Gradiente_sem_nome_6);
      }

      .cls-2 {
        fill: #4c1c72;
      }

      .cls-3 {
        fill: #a06dd1;
      }

      .cls-4 {
        fill: url(#Gradiente_sem_nome_6-2);
      }
    </style>
    <linearGradient id="Gradiente_sem_nome_6" data-name="Gradiente sem nome 6" x1="35.33" y1="8.45" x2="52.23" y2="8.45" gradientUnits="userSpaceOnUse">
      <stop offset="0" stop-color="#977a50"/>
      <stop offset="1" stop-color="#ead48b"/>
    </linearGradient>
    <linearGradient id="Gradiente_sem_nome_6-2" data-name="Gradiente sem nome 6" x1="0" y1="67.47" x2="87.01" y2="67.47" xlink:href="#Gradiente_sem_nome_6"/>
  </defs>
  <g id="Camada_1-2" data-name="Camada 1">
    <g>
      <g>
        <path class="cls-1" d="m43.78,16.9c.17-.92.84-3.82,3.47-6.09,1.94-1.67,3.99-2.18,4.98-2.36-.63,0-3.46-.11-5.81-2.36-2.54-2.42-2.63-5.52-2.64-6.09,0,0-.34,3.72-2.92,6.09-2.22,2.04-4.76,2.31-5.53,2.36.93.16,3.25.7,5.34,2.67,2.36,2.23,2.95,4.89,3.11,5.78Zm-2.02-9.83c.83-.76,1.45-1.58,1.92-2.39.44.8,1.02,1.62,1.81,2.37.77.73,1.58,1.27,2.37,1.66-.49.31-.99.66-1.48,1.08-1.17,1.01-2,2.12-2.59,3.19-.52-.95-1.23-1.93-2.21-2.85-.66-.62-1.35-1.13-2.03-1.53.73-.38,1.49-.88,2.21-1.55Z"/>
        <path class="cls-4" d="m75.62,19.95c-11.31,0-22.23,3.48-31.59,10.07-9.59-6.59-20.78-10.07-32.36-10.07H0v59.39c0,19.66,15.66,35.65,34.91,35.65h1.29l-.32-1.27c-2.38-9.51.39-19.65,7.24-26.48.35-.35.73-.7,1.18-1.1.7.65,1.36,1.33,1.97,2.04,9.39,10.84,5.85,24.92,5.69,25.52l-.34,1.29h1.29c18.79,0,34.08-15.99,34.08-35.65V19.95h-11.39Zm-31.59,12.55c3.81,2.75,7.28,5.99,10.32,9.61-6.75.9-13.75.94-20.5.15,2.99-3.69,6.42-6.97,10.18-9.76ZM2.01,21.99h9.65c10.92,0,21.5,3.21,30.62,9.3-4,3.05-7.62,6.63-10.75,10.66-15.36-2.27-27.21-8.8-29.53-16.29v-3.68Zm39.71,63.8c-6.99,6.97-10.07,17.34-8.07,27.14-17.48-.68-31.64-15.67-31.64-33.58V29.48c4.13,6.86,14.5,12.17,28.12,14.36-7.39,10.33-11.29,22.59-11.29,35.5v1.34l1.25-.35c7.99-2.26,16.23-.63,22.67,4.48-.39.35-.73.66-1.04.98Zm-14.6-8.48c-2.1,0-4.22.25-6.29.73.27-12.38,4.25-24.08,11.54-33.86,7.72,1.02,15.97.94,23.51-.14,7.54,9.83,11.66,21.59,11.93,34.05-3.57-.64-14.26-1.75-23.47,5.41-4.86-3.99-10.96-6.19-17.21-6.19Zm57.91,2.04c0,17.91-13.82,32.9-30.87,33.58.75-4.05,2.08-16.3-6.41-26.1-.59-.68-1.22-1.34-1.87-1.96,10.23-7.68,22.18-4.67,22.69-4.53l1.26.33v-1.32c0-12.98-4.04-25.3-11.69-35.67,12.98-2.24,22.89-7.45,26.89-14.08v49.74Zm0-53.67c-2.28,7.35-13.39,13.66-28.36,16.1-3.18-3.97-6.85-7.5-10.9-10.51,8.89-6.07,19.2-9.27,29.84-9.27h9.41v3.68Z"/>
      </g>
      <g>
        <g>
          <path class="cls-3" d="m128.97,112.4c-2.03,0-3.59-1.53-3.59-3.7s1.56-3.7,3.59-3.7,3.59,1.54,3.59,3.7-1.54,3.7-3.59,3.7Zm0-.63c1.61,0,2.84-1.17,2.84-3.07s-1.23-3.06-2.84-3.06-2.84,1.16-2.84,3.06,1.23,3.07,2.84,3.07Z"/>
          <path class="cls-3" d="m141.94,108.72c0,2.25-1.42,3.61-3.84,3.61h-2.15v-7.25h2.15c2.42,0,3.84,1.37,3.84,3.64Zm-3.84,3.01c2.05,0,3.1-1.14,3.1-3.01s-1.05-3.04-3.1-3.04h-1.42v6.05h1.42Z"/>
          <path class="cls-3" d="m148.61,112.4c-2.03,0-3.59-1.53-3.59-3.7s1.56-3.7,3.59-3.7,3.59,1.54,3.59,3.7-1.54,3.7-3.59,3.7Zm0-.63c1.61,0,2.84-1.17,2.84-3.07s-1.23-3.06-2.84-3.06-2.84,1.16-2.84,3.06,1.23,3.07,2.84,3.07Z"/>
          <path class="cls-3" d="m161.06,105.08v7.25h-.73l-4.01-6.1v6.1h-.73v-7.25h.73l4.01,6.09v-6.09h.73Z"/>
          <path class="cls-3" d="m164.25,105.08h4.76v.6h-2.01v6.65h-.73v-6.65h-2.02v-.6Z"/>
          <path class="cls-3" d="m175.49,112.4c-2.03,0-3.59-1.53-3.59-3.7s1.56-3.7,3.59-3.7,3.59,1.54,3.59,3.7-1.55,3.7-3.59,3.7Zm0-.63c1.61,0,2.84-1.17,2.84-3.07s-1.24-3.06-2.84-3.06-2.84,1.16-2.84,3.06,1.23,3.07,2.84,3.07Z"/>
          <path class="cls-3" d="m183.2,105.08v6.66h2.6v.59h-3.33v-7.25h.73Z"/>
          <path class="cls-3" d="m192.17,112.4c-2.03,0-3.59-1.53-3.59-3.7s1.56-3.7,3.59-3.7,3.59,1.54,3.59,3.7-1.55,3.7-3.59,3.7Zm0-.63c1.61,0,2.84-1.17,2.84-3.07s-1.24-3.06-2.84-3.06-2.84,1.16-2.84,3.06,1.23,3.07,2.84,3.07Z"/>
          <path class="cls-3" d="m205.71,107.19h-.85c-.41-.93-1.29-1.54-2.45-1.54-1.61,0-2.84,1.16-2.84,3.04s1.23,3.05,2.84,3.05c1.52,0,2.64-1.03,2.76-2.68h-3.05v-.59h3.82v.53c-.11,1.92-1.55,3.39-3.53,3.39s-3.59-1.53-3.59-3.7,1.56-3.7,3.59-3.7c1.56,0,2.78.82,3.3,2.2Z"/>
          <path class="cls-3" d="m209.33,105.08h.73v7.25h-.73v-7.25Z"/>
          <path class="cls-3" d="m217.98,110.6h-3.3l-.63,1.72h-.77l2.65-7.16h.82l2.63,7.16h-.77l-.63-1.72Zm-1.65-4.52l-1.43,3.92h2.86l-1.43-3.92Z"/>
          <path class="cls-3" d="m231.31,105.67h-3.06v2.71h2.75v.6h-2.75v2.75h3.06v.6h-3.78v-7.26h3.78v.6Z"/>
          <path class="cls-3" d="m231.51,105.67h-3.06v2.71h2.75v.6h-2.75v2.75h3.06v.6h-3.79v-7.26h3.79v.6Z"/>
          <path class="cls-3" d="m237.2,112.4c-1.45,0-2.41-.83-2.45-1.94h.77c.06.6.51,1.33,1.68,1.33,1.01,0,1.6-.59,1.6-1.34,0-2.14-3.98-.79-3.98-3.52,0-1.12.92-1.94,2.32-1.94s2.21.77,2.33,1.76h-.79c-.08-.51-.57-1.13-1.58-1.14-.85,0-1.56.46-1.56,1.3,0,2.09,3.98.81,3.98,3.5,0,.99-.8,1.98-2.33,1.98Z"/>
          <path class="cls-3" d="m242.49,105.08h4.76v.6h-2.01v6.65h-.73v-6.65h-2.02v-.6Z"/>
          <path class="cls-3" d="m254.25,105.67h-3.06v2.71h2.75v.6h-2.75v2.75h3.06v.6h-3.78v-7.26h3.78v.6Zm-1.08-2.82v.65l-2.13,1.23v-.56l2.13-1.33Z"/>
          <path class="cls-3" d="m257.24,105.08h4.76v.6h-2.01v6.65h-.73v-6.65h-2.02v-.6Z"/>
          <path class="cls-3" d="m265.22,105.08h.73v7.25h-.73v-7.25Z"/>
          <path class="cls-3" d="m272.88,104.99c1.62,0,2.82.81,3.34,2.2h-.85c-.4-.96-1.25-1.56-2.49-1.56-1.59,0-2.8,1.17-2.8,3.07s1.21,3.06,2.8,3.06c1.23,0,2.09-.6,2.49-1.55h.85c-.52,1.37-1.72,2.18-3.34,2.18-2.01,0-3.55-1.51-3.55-3.69s1.54-3.7,3.55-3.7Z"/>
          <path class="cls-3" d="m283.93,110.6h-3.3l-.63,1.72h-.77l2.65-7.16h.82l2.63,7.16h-.77l-.63-1.72Zm-1.65-4.52l-1.43,3.92h2.86l-1.43-3.92Z"/>
        </g>
        <g>
          <g>
            <polygon class="cls-2" points="127.17 20.06 117.08 20.06 117.08 20.92 121.06 22.54 121.06 87.27 161.91 87.27 161.91 85.46 127.17 85.46 127.17 20.06"/>
            <polygon class="cls-2" points="165.79 35.67 170.14 37.37 170.14 87.27 176.19 87.27 176.19 34.71 165.79 34.71 165.79 35.67"/>
            <path class="cls-2" d="m173.22,19.96c-1.2,0-2.19.39-2.97,1.17-.78.78-1.17,1.77-1.17,2.97s.39,2.19,1.17,2.97c.78.78,1.77,1.17,2.97,1.17,1.13,0,2.11-.39,2.92-1.17.81-.78,1.22-1.77,1.22-2.97s-.41-2.19-1.22-2.97c-.81-.78-1.79-1.17-2.92-1.17Z"/>
            <polygon class="cls-2" points="190 20.77 194.24 22.28 194.24 87.38 200.4 87.38 200.4 20.06 190 20.06 190 20.77"/>
            <path class="cls-2" d="m273.08,32.48c1.88-3.08,4.2-5.5,6.96-7.27,2.62-1.67,5.38-2.51,8.28-2.51,3.26,0,6.34.99,9.24,2.97,2.9,1.98,5.16,4.74,6.79,8.26.14-.18.41-.35.8-.53.39-.18.55-.35.48-.53-2.05-4.4-4.8-7.64-8.23-9.71-3.44-2.07-7.03-3.1-10.78-3.1-4.46,0-8.64,1.28-12.53,3.83-4.46,2.91-7.79,7.14-9.98,12.69-2.2,5.55-3.29,11.41-3.29,17.57s1.1,12.02,3.29,17.57c1.78,4.5,4.34,8.08,7.61,10.84-3.55,1.79-7.21,3.5-11.06,4.55-1.54.42-3.13.74-4.74.75-.67,0-1.34-.05-2-.19-.55-.12-1.37-.24-1.73-.69-.38-.48-.51-1.19-.5-1.79.15-13.69.31-27.38.46-41.07.05-4.4.08-8.93-1.51-13.03-1.69-4.37-5.24-7.99-9.58-9.77-4.34-1.78-9.4-1.7-13.68.22-6.4,2.88-10.53,9.49-12.02,16.35.55.13,1.1.25,1.65.38,1.3-4.73,3.53-9.36,7.27-12.52,3.74-3.17,9.2-4.6,13.7-2.67,4.81,2.05,7.54,7.44,7.87,12.66.12,1.88-.02,3.79-.62,5.58-1.31,3.95-4.69,6.91-8.36,8.86-3.68,1.95-7.73,3.07-11.6,4.6-3.87,1.53-7.7,3.58-10.23,6.89-2.13,2.79-3.18,6.31-3.36,9.81-.28,5.45,1.72,11.27,6.17,14.44,2.66,1.89,5.99,2.71,9.25,2.71,7.99.01,15.77-5.02,19.04-12.31.64,1.56,1.28,3.11,1.92,4.67.61,1.49,1.14,3.04,1.83,4.49,1.3,2.74,4.36,3.35,7.1,3.13,3.55-.28,7.02-1.55,10.29-2.9.9-.37,1.79-.76,2.68-1.17.45-.2.9-.41,1.34-.62.14-.07,1.25-.71,1.34-.64.48.37.93.78,1.44,1.12,3.89,2.55,8.07,3.83,12.53,3.83,1,0,2-.07,2.98-.22,4.16-.63,7.3-2.57,7.8-2.88,3.14-1.99,5.9-4.96,7.31-8.44.47-1.15.86-2.62.35-3.81-.49-1.14-1.42-2.1-2.54-2.63-1.57-.74-3.4-.66-5.06-.34-1.92.38-3.76,1.09-5.54,1.89-1.41.64-2.79,1.35-4.17,2.06-2.4,1.11-6.57,3.61-11.3,6.2-1.24-1.28-2.37-2.71-3.36-4.32-1.88-3.04-3.27-6.41-4.19-10.11-.92-3.7-1.38-7.55-1.38-11.56s.46-7.84,1.38-11.5c.92-3.65,2.32-7.02,4.19-10.11Zm-27.02,38.21c-.14,1.92-.71,3.78-1.7,5.57-.99,1.79-2.23,3.39-3.72,4.79-1.49,1.4-3.15,2.49-4.99,3.28-1.84.79-3.72,1.18-5.63,1.18-.99,0-1.95-.11-2.87-.33-.92-.22-1.8-.59-2.66-1.12-1.63-.96-2.95-2.36-3.98-4.2-1.03-1.84-1.7-3.85-2.02-6.03-.32-2.19-.29-4.37.1-6.56.39-2.19,1.15-4.07,2.28-5.64,1.7-2.27,3.77-3.98,6.21-5.11,2.44-1.14,4.88-2.21,7.33-3.21,2.44-1.01,4.72-2.25,6.85-3.74,2.12-1.48,3.72-3.67,4.78-6.56v27.68Zm42.18,4.12c3.04-1.61,6.18-3.36,9.59-4.06,1.53-.31,3.24-.41,4.67.34,1.79.93,2.78,2.92,1.97,4.85-.61,1.46-1.81,2.64-2.96,3.69-1.22,1.12-2.55,2.12-3.95,3-.78.49-3.64,2.22-6.52,2.73-.89.16-1.8.24-2.72.24-2.9,0-5.66-.84-8.28-2.51-.97-.65-1.86-1.4-2.72-2.19,4.63-2.48,8.67-4.89,10.93-6.08Z"/>
          </g>
          <g>
            <polygon class="cls-2" points="127.17 20.06 117.08 20.06 117.08 20.92 121.06 22.54 121.06 87.27 161.91 87.27 161.91 85.46 127.17 85.46 127.17 20.06"/>
            <polygon class="cls-2" points="165.79 35.67 170.14 37.37 170.14 87.27 176.19 87.27 176.19 34.71 165.79 34.71 165.79 35.67"/>
            <path class="cls-2" d="m173.22,19.96c-1.2,0-2.19.39-2.97,1.17-.78.78-1.17,1.77-1.17,2.97s.39,2.19,1.17,2.97c.78.78,1.77,1.17,2.97,1.17,1.13,0,2.11-.39,2.92-1.17.81-.78,1.22-1.77,1.22-2.97s-.41-2.19-1.22-2.97c-.81-.78-1.79-1.17-2.92-1.17Z"/>
            <polygon class="cls-2" points="190 20.77 194.24 22.28 194.24 87.38 200.4 87.38 200.4 20.06 190 20.06 190 20.77"/>
            <path class="cls-2" d="m273.08,32.48c1.88-3.08,4.2-5.5,6.96-7.27,2.62-1.67,5.38-2.51,8.28-2.51,3.26,0,6.34.99,9.24,2.97,2.9,1.98,5.16,4.74,6.79,8.26.14-.18.41-.35.8-.53.39-.18.55-.35.48-.53-2.05-4.4-4.8-7.64-8.23-9.71-3.44-2.07-7.03-3.1-10.78-3.1-4.46,0-8.64,1.28-12.53,3.83-4.46,2.91-7.79,7.14-9.98,12.69-2.2,5.55-3.29,11.41-3.29,17.57s1.1,12.02,3.29,17.57c1.78,4.5,4.34,8.08,7.61,10.84-3.55,1.79-7.21,3.5-11.06,4.55-1.54.42-3.13.74-4.74.75-.67,0-1.34-.05-2-.19-.55-.12-1.37-.24-1.73-.69-.38-.48-.51-1.19-.5-1.79.15-13.69.31-27.38.46-41.07.05-4.4.08-8.93-1.51-13.03-1.69-4.37-5.24-7.99-9.58-9.77-4.34-1.78-9.4-1.7-13.68.22-6.4,2.88-10.53,9.49-12.02,16.35.55.13,1.1.25,1.65.38,1.3-4.73,3.53-9.36,7.27-12.52,3.74-3.17,9.2-4.6,13.7-2.67,4.81,2.05,7.54,7.44,7.87,12.66.12,1.88-.02,3.79-.62,5.58-1.31,3.95-4.69,6.91-8.36,8.86-3.68,1.95-7.73,3.07-11.6,4.6-3.87,1.53-7.7,3.58-10.23,6.89-2.13,2.79-3.18,6.31-3.36,9.81-.28,5.45,1.72,11.27,6.17,14.44,2.66,1.89,5.99,2.71,9.25,2.71,7.99.01,15.77-5.02,19.04-12.31.64,1.56,1.28,3.11,1.92,4.67.61,1.49,1.14,3.04,1.83,4.49,1.3,2.74,4.36,3.35,7.1,3.13,3.55-.28,7.02-1.55,10.29-2.9.9-.37,1.79-.76,2.68-1.17.45-.2.9-.41,1.34-.62.14-.07,1.25-.71,1.34-.64.48.37.93.78,1.44,1.12,3.89,2.55,8.07,3.83,12.53,3.83,1,0,2-.07,2.98-.22,4.16-.63,7.3-2.57,7.8-2.88,3.14-1.99,5.9-4.96,7.31-8.44.47-1.15.86-2.62.35-3.81-.49-1.14-1.42-2.1-2.54-2.63-1.57-.74-3.4-.66-5.06-.34-1.92.38-3.76,1.09-5.54,1.89-1.41.64-2.79,1.35-4.17,2.06-2.4,1.11-6.57,3.61-11.3,6.2-1.24-1.28-2.37-2.71-3.36-4.32-1.88-3.04-3.27-6.41-4.19-10.11-.92-3.7-1.38-7.55-1.38-11.56s.46-7.84,1.38-11.5c.92-3.65,2.32-7.02,4.19-10.11Zm-27.02,38.21c-.14,1.92-.71,3.78-1.7,5.57-.99,1.79-2.23,3.39-3.72,4.79-1.49,1.4-3.15,2.49-4.99,3.28-1.84.79-3.72,1.18-5.63,1.18-.99,0-1.95-.11-2.87-.33-.92-.22-1.8-.59-2.66-1.12-1.63-.96-2.95-2.36-3.98-4.2-1.03-1.84-1.7-3.85-2.02-6.03-.32-2.19-.29-4.37.1-6.56.39-2.19,1.15-4.07,2.28-5.64,1.7-2.27,3.77-3.98,6.21-5.11,2.44-1.14,4.88-2.21,7.33-3.21,2.44-1.01,4.72-2.25,6.85-3.74,2.12-1.48,3.72-3.67,4.78-6.56v27.68Zm42.18,4.12c3.04-1.61,6.18-3.36,9.59-4.06,1.53-.31,3.24-.41,4.67.34,1.79.93,2.78,2.92,1.97,4.85-.61,1.46-1.81,2.64-2.96,3.69-1.22,1.12-2.55,2.12-3.95,3-.78.49-3.64,2.22-6.52,2.73-.89.16-1.8.24-2.72.24-2.9,0-5.66-.84-8.28-2.51-.97-.65-1.86-1.4-2.72-2.19,4.63-2.48,8.67-4.89,10.93-6.08Z"/>
          </g>
          <g>
            <polygon class="cls-2" points="127.17 20.06 117.08 20.06 117.08 20.92 121.06 22.54 121.06 87.27 161.91 87.27 161.91 85.46 127.17 85.46 127.17 20.06"/>
            <polygon class="cls-2" points="165.79 35.67 170.14 37.37 170.14 87.27 176.19 87.27 176.19 34.71 165.79 34.71 165.79 35.67"/>
            <path class="cls-2" d="m173.22,19.96c-1.2,0-2.19.39-2.97,1.17-.78.78-1.17,1.77-1.17,2.97s.39,2.19,1.17,2.97c.78.78,1.77,1.17,2.97,1.17,1.13,0,2.11-.39,2.92-1.17.81-.78,1.22-1.77,1.22-2.97s-.41-2.19-1.22-2.97c-.81-.78-1.79-1.17-2.92-1.17Z"/>
            <polygon class="cls-2" points="190 20.77 194.24 22.28 194.24 87.38 200.4 87.38 200.4 20.06 190 20.06 190 20.77"/>
            <path class="cls-2" d="m273.08,32.48c1.88-3.08,4.2-5.5,6.96-7.27,2.62-1.67,5.38-2.51,8.28-2.51,3.26,0,6.34.99,9.24,2.97,2.9,1.98,5.16,4.74,6.79,8.26.14-.18.41-.35.8-.53.39-.18.55-.35.48-.53-2.05-4.4-4.8-7.64-8.23-9.71-3.44-2.07-7.03-3.1-10.78-3.1-4.46,0-8.64,1.28-12.53,3.83-4.46,2.91-7.79,7.14-9.98,12.69-2.2,5.55-3.29,11.41-3.29,17.57s1.1,12.02,3.29,17.57c1.78,4.5,4.34,8.08,7.61,10.84-3.55,1.79-7.21,3.5-11.06,4.55-1.54.42-3.13.74-4.74.75-.67,0-1.34-.05-2-.19-.55-.12-1.37-.24-1.73-.69-.38-.48-.51-1.19-.5-1.79.15-13.69.31-27.38.46-41.07.05-4.4.08-8.93-1.51-13.03-1.69-4.37-5.24-7.99-9.58-9.77-4.34-1.78-9.4-1.7-13.68.22-6.4,2.88-10.53,9.49-12.02,16.35.55.13,1.1.25,1.65.38,1.3-4.73,3.53-9.36,7.27-12.52,3.74-3.17,9.2-4.6,13.7-2.67,4.81,2.05,7.54,7.44,7.87,12.66.12,1.88-.02,3.79-.62,5.58-1.31,3.95-4.69,6.91-8.36,8.86-3.68,1.95-7.73,3.07-11.6,4.6-3.87,1.53-7.7,3.58-10.23,6.89-2.13,2.79-3.18,6.31-3.36,9.81-.28,5.45,1.72,11.27,6.17,14.44,2.66,1.89,5.99,2.71,9.25,2.71,7.99.01,15.77-5.02,19.04-12.31.64,1.56,1.28,3.11,1.92,4.67.61,1.49,1.14,3.04,1.83,4.49,1.3,2.74,4.36,3.35,7.1,3.13,3.55-.28,7.02-1.55,10.29-2.9.9-.37,1.79-.76,2.68-1.17.45-.2.9-.41,1.34-.62.14-.07,1.25-.71,1.34-.64.48.37.93.78,1.44,1.12,3.89,2.55,8.07,3.83,12.53,3.83,1,0,2-.07,2.98-.22,4.16-.63,7.3-2.57,7.8-2.88,3.14-1.99,5.9-4.96,7.31-8.44.47-1.15.86-2.62.35-3.81-.49-1.14-1.42-2.1-2.54-2.63-1.57-.74-3.4-.66-5.06-.34-1.92.38-3.76,1.09-5.54,1.89-1.41.64-2.79,1.35-4.17,2.06-2.4,1.11-6.57,3.61-11.3,6.2-1.24-1.28-2.37-2.71-3.36-4.32-1.88-3.04-3.27-6.41-4.19-10.11-.92-3.7-1.38-7.55-1.38-11.56s.46-7.84,1.38-11.5c.92-3.65,2.32-7.02,4.19-10.11Zm-27.02,38.21c-.14,1.92-.71,3.78-1.7,5.57-.99,1.79-2.23,3.39-3.72,4.79-1.49,1.4-3.15,2.49-4.99,3.28-1.84.79-3.72,1.18-5.63,1.18-.99,0-1.95-.11-2.87-.33-.92-.22-1.8-.59-2.66-1.12-1.63-.96-2.95-2.36-3.98-4.2-1.03-1.84-1.7-3.85-2.02-6.03-.32-2.19-.29-4.37.1-6.56.39-2.19,1.15-4.07,2.28-5.64,1.7-2.27,3.77-3.98,6.21-5.11,2.44-1.14,4.88-2.21,7.33-3.21,2.44-1.01,4.72-2.25,6.85-3.74,2.12-1.48,3.72-3.67,4.78-6.56v27.68Zm42.18,4.12c3.04-1.61,6.18-3.36,9.59-4.06,1.53-.31,3.24-.41,4.67.34,1.79.93,2.78,2.92,1.97,4.85-.61,1.46-1.81,2.64-2.96,3.69-1.22,1.12-2.55,2.12-3.95,3-.78.49-3.64,2.22-6.52,2.73-.89.16-1.8.24-2.72.24-2.9,0-5.66-.84-8.28-2.51-.97-.65-1.86-1.4-2.72-2.19,4.63-2.48,8.67-4.89,10.93-6.08Z"/>
          </g>
        </g>
      </g>
    </g>
  </g>
</svg>