<svg id="Grupo_557" data-name="Grupo 557" xmlns="http://www.w3.org/2000/svg" width="29.381" height="29.724" viewBox="0 0 29.381 29.724">
  <path id="Caminho_252" data-name="Caminho 252" d="M.64,31.929A11.986,11.986,0,0,1,1.1,30.345c.356-1.163.722-2.323,1.086-3.484a6.1,6.1,0,0,1,1.348-2.282c-.241-.175-.506-.3-.738-.487A3.58,3.58,0,0,1,1.688,22.3a.216.216,0,0,1,.094-.252,5.463,5.463,0,0,0,.872-.812,5.633,5.633,0,0,0,1.359-2.8,10.346,10.346,0,0,0,.131-1.915c0-1.9.014-3.793,0-5.689A8.23,8.23,0,0,1,5.239,6.6a8.491,8.491,0,0,1,7-4.358c.558-.029,1.114-.05,1.67-.036A4.786,4.786,0,0,1,17.1,3.363a4.862,4.862,0,0,1,1.221,1.643.528.528,0,0,0,.3.3A4.237,4.237,0,0,1,20.1,6.327a4.441,4.441,0,0,1,1.147,2.137,7.14,7.14,0,0,1,.163,1.528c0,2.448.01,4.9,0,7.343A5.8,5.8,0,0,0,22.737,21.1a.478.478,0,0,0,.165.139,3.141,3.141,0,0,1,1.243,1.108c.093.135.132.16.236.008a2.907,2.907,0,0,1,1.89-1.344,3.029,3.029,0,0,1,2.593.569,3.075,3.075,0,0,1,1.15,2.733,14.163,14.163,0,0,1-.7,3.85q-.5,1.411-1.007,2.817a1.6,1.6,0,0,1-1.082.95h-.58a1.634,1.634,0,0,1-1.166-1.383c-.153-.769-.35-1.528-.515-2.295-.107-.5-.309-.564-.683-.613a.6.6,0,0,0-.7.527c-.179.688-.353,1.38-.469,2.08a1.809,1.809,0,0,1-1.286,1.684ZM5.11,13.256a1.577,1.577,0,0,1,.751-.41c.184-.046.2-.112.2-.262a7.138,7.138,0,0,1,.036-1.3,2.8,2.8,0,0,1,1.258-1.9,3.229,3.229,0,0,1,1.8-.473c1.774-.01,3.549.066,5.322-.043a3.812,3.812,0,0,0,1.756-.535c.792-.48.861-.494,1.541-.036.079.053.15.116.224.176a3.914,3.914,0,0,1,1.449,2.727c.051.482.029.964.039,1.446,0,.071-.025.154.087.183a4.56,4.56,0,0,1,.848.39c.007-.063.014-.1.014-.135,0-1.17.017-2.341-.009-3.51A3.7,3.7,0,0,0,17.857,6.03a.389.389,0,0,1-.274-.273,3.619,3.619,0,0,0-.725-1.3A3.7,3.7,0,0,0,14.15,3.184a10.582,10.582,0,0,0-3.677.342A7.552,7.552,0,0,0,6.279,6.749a7.16,7.16,0,0,0-1.152,3.306c-.085,1.037-.017,2.087-.017,3.2M24.249,24.1c-.206-.284-.379-.543-.572-.787a2.961,2.961,0,0,0-1.82-1.4A2.069,2.069,0,0,0,19.5,23.637a10.578,10.578,0,0,0,.024,1.424,4.637,4.637,0,0,0,.124.982,15.963,15.963,0,0,0,.676,2.4q.405,1.117.819,2.231a.425.425,0,0,0,.5.269.444.444,0,0,0,.413-.369c.182-.786.384-1.569.517-2.364a1.7,1.7,0,0,1,1.766-1.516,1.59,1.59,0,0,1,1.5,1.117c.269.9.408,1.822.639,2.726.081.32.22.436.542.4.268-.028.37-.232.449-.456.194-.557.374-1.119.591-1.667a12.714,12.714,0,0,0,.975-4.847,1.961,1.961,0,0,0-1.191-1.894,2.081,2.081,0,0,0-2.544.65c-.321.468-.688.905-1.046,1.372M11.7,9.871H9.324a3.845,3.845,0,0,0-.8.052,1.777,1.777,0,0,0-1.485,1.6c-.064,1.438-.018,2.881-.02,4.322,0,.159.035.194.2.134a4.631,4.631,0,0,1,.688-.136c.719-.132,1.438-.271,2.158-.394a15.229,15.229,0,0,1,1.648-.235,10,10,0,0,1,1.453-.032c.511.044,1.028.071,1.532.148,1.206.185,2.4.421,3.6.65.153.029.216.034.212-.136-.041-1.552.078-3.106-.064-4.656a2.709,2.709,0,0,0-1.231-2.087.273.273,0,0,0-.341-.024,6.155,6.155,0,0,1-3.3.792c-.628-.023-1.257,0-1.885,0m.9,6.268a6.367,6.367,0,0,0-1.607.125c-1.093.175-2.176.414-3.272.576-.7.1-.681.118-.471.854a5.607,5.607,0,0,0,2.772,3.475,5.212,5.212,0,0,0,3.169.672,6.129,6.129,0,0,0,1.948-.507,5.812,5.812,0,0,0,2.6-2.359A5.881,5.881,0,0,0,18.4,17.2c.018-.083.074-.22-.129-.252-1.021-.162-2.044-.322-3.057-.525a11.823,11.823,0,0,0-2.612-.28M6.965,28.246c.669-.5,1.269-.965,1.879-1.411.159-.116.131-.164-.013-.249-.566-.334-1.122-.687-1.7-1.008-.2-.113-.239-.226-.157-.422.177-.422.344-.848.521-1.269.027-.063.08-.132.025-.178a.272.272,0,0,0-.194-.021,5.524,5.524,0,0,0-2.475.985A4.815,4.815,0,0,0,3.3,26.661c-.379.905-.609,1.858-.92,2.784-.136.406-.273.813-.386,1.226-.023.086-.18.3.118.3,1.122,0,2.244,0,3.365,0,.079,0,.142.007.155-.112.048-.422.116-.842.17-1.263.08-.629.162-1.257.228-1.888.014-.129.075-.161.16-.124a1.6,1.6,0,0,0,.451.054c.2.027.383.064.328.356-.066.353-.093.713-.139,1.07-.071.553-.141,1.106-.216,1.659-.027.2.043.255.248.253,1.615-.01,3.23-.005,4.845-.005.545,0,.539,0,.543-.555,0-.141-.026-.228-.165-.279q-1.559-.572-3.115-1.15l-2.008-.737m6.683.815a.227.227,0,0,0,.2.011c.2-.1.428-.275.622-.195s.185.383.285.58c0,.008.013.015.017.023a.177.177,0,0,1-.106.285c-.261.1-.517.215-.78.307-.647.227-.662.247-.655.7,0,.155.051.2.2.2.387-.008.773,0,1.16,0q2.045,0,4.089,0c.172,0,.267.028.207-.244a15.7,15.7,0,0,1-.2-1.605c-.041-.367-.067-.737-.13-1.1s-.075-.36.261-.383c.149-.01.208-.029.166-.211a14.738,14.738,0,0,1-.34-1.71c-.035-.315-.133-.249-.3-.147-.554.336-1.1.689-1.662,1.005-.207.116-.143.185-.02.277.557.418,1.112.839,1.681,1.242.164.116.112.166-.017.218-.71.281-1.421.562-2.136.833-.385.146-.39.138-.549-.237-.065-.155-.19-.334-.155-.466.031-.116.264-.144.415-.2.166-.06.322-.15.492-.2s.154-.113.042-.2c-.248-.19-.5-.373-.751-.559l-.9-.673c.858-.527,1.674-1.034,2.5-1.53.108-.066.15-.092.084-.227a7.34,7.34,0,0,1-.269-.707c-.143-.387-.265-.733-.818-.741-.291,0-.4.049-.489.283-.209.548-.418,1.1-.637,1.641q-.747,1.864-1.5,3.726m-8.553-12c-.023.038-.039.053-.039.068,0,.126-.009.251,0,.377a6.146,6.146,0,0,1-.713,2.962,6.936,6.936,0,0,1-1.411,1.885.237.237,0,0,0-.059.338,2.2,2.2,0,0,0,.679.76,1.011,1.011,0,0,0,1.337.069,2.909,2.909,0,0,1,.723-.358A8.759,8.759,0,0,1,7.453,22.7c.529-.091,1.059-.183,1.593-.225.282-.022.391-.1.365-.386a.31.31,0,0,0-.152-.268c-.227-.151-.452-.3-.667-.478a6.557,6.557,0,0,1-2.318-3.57c-.031-.122-.053-.25-.194-.276a2.344,2.344,0,0,1-.984-.437m7.656,11.656c.741-1.842,1.458-3.609,2.158-5.383a1.914,1.914,0,0,0,.243-.741c0-.153,0-.222-.206-.149a6.619,6.619,0,0,1-1.789.366,6.344,6.344,0,0,1-2.649-.38c-.165-.062-.188,0-.176.137a2.948,2.948,0,0,0,.283.785c.443,1.117.895,2.23,1.34,3.345.261.654.516,1.311.8,2.02m7.686-11.661a2.054,2.054,0,0,1-.817.395c-.293.037-.355.187-.408.409a6.471,6.471,0,0,1-1.548,2.809,6.991,6.991,0,0,1-1.479,1.188c-.2.132-.092.311-.1.462,0,.13.145.132.26.147.683.093,1.372.16,2.042.306.29.063.371-.025.482-.243a2.816,2.816,0,0,1,1.477-1.367c.341-.142.7-.173,1.047-.283a6.9,6.9,0,0,1-.96-3.823m-9.718,9.554L8.943,27.956l2.673.992c.056.02.12.041.156-.013a.179.179,0,0,0-.008-.135c-.164-.416-.331-.83-.5-1.246q-.786-1.969-1.575-3.938c-.034-.084-.056-.215-.164-.213-.265,0-.53.034-.794.064-.048.006-.068.075-.089.132-.159.42-.323.837-.5,1.251-.05.119-.065.17.073.251.839.493,1.667,1,2.5,1.51m-4.657-10.1c0-.885,0-1.732,0-2.581,0-.229-.146-.094-.208-.058a1.388,1.388,0,0,0-.737,1.473,1.417,1.417,0,0,0,.948,1.165M19.5,13.832c-.03.892.033,1.767-.043,2.644a1.393,1.393,0,0,0,.043-2.644m-.981,11.293c-.027-.436.005-.86,0-1.283,0-.05-.011-.113-.071-.1-.166.039-.346-.134-.46-.035-.075.065.058.243.116.364.008.016,0,.039.009.056q.2.5.406,1m1.691,5.792-.391-1.037a6.931,6.931,0,0,0,.027.766c0,.278.1.348.364.271" transform="translate(-0.64 -2.205)" fill="#977a50"/>
  <path id="Caminho_256" data-name="Caminho 256" d="M50.006,35.23a1.158,1.158,0,0,1,1.185,1.2,1.2,1.2,0,0,1-2.394-.056,1.149,1.149,0,0,1,1.209-1.143m.177,1.248c.031-.213,0-.3-.156-.322a.227.227,0,0,0-.28.214.227.227,0,0,0,.437.108" transform="translate(-34.756 -25.594)" fill="#977a50"/>
  <path id="Caminho_257" data-name="Caminho 257" d="M28.569,35.256A1.143,1.143,0,0,1,29.775,36.4a1.281,1.281,0,0,1-1.11,1.184,1.21,1.21,0,0,1-1.317-1.177,1.121,1.121,0,0,1,1.221-1.155m0,.924c-.143.017-.238.083-.239.231a.209.209,0,0,0,.224.234.214.214,0,0,0,.238-.224c0-.147-.091-.216-.223-.241" transform="translate(-19.56 -25.62)" fill="#977a50"/>
</svg>
