<svg id="Grupo_559" data-name="Grupo 559" xmlns="http://www.w3.org/2000/svg" width="23.754" height="29.724" viewBox="0 0 23.754 29.724">
  <path id="Caminho_249" data-name="Caminho 249" d="M313.166,4a7.457,7.457,0,0,0,.839.267,3.757,3.757,0,0,1,.8.472,2.465,2.465,0,0,0,1.889.443,3.232,3.232,0,0,1,2.316.624,3.375,3.375,0,0,1,1.123,1.5,2.438,2.438,0,0,0,1.424,1.328,3.127,3.127,0,0,1,1.885,2.814c-.011.334-.047.67-.043,1a2.193,2.193,0,0,0,.516,1.4,3.353,3.353,0,0,1-.006,4.122,2.152,2.152,0,0,0-.474,1.645,3.33,3.33,0,0,1-1.142,3.1,3.527,3.527,0,0,1-.945.56,2.173,2.173,0,0,0-1.228,1.244,2.973,2.973,0,0,1-.776,1.142c-.111.1-.115.166-.046.3q1.114,2.2,2.208,4.4a1.2,1.2,0,0,1-.74,1.764,2.2,2.2,0,0,1-1.044-.057c-.276-.059-.555-.1-.833-.146a.327.327,0,0,0-.4.2c-.148.313-.353.6-.53.9a1.265,1.265,0,0,1-1.319.687,1.248,1.248,0,0,1-.969-.917q-.955-2.389-1.905-4.78c-.147-.369-.162-.394-.695-.26a2.23,2.23,0,0,1-1.008-.055c-.161-.031-.232.014-.279.14-.585,1.554-1.212,3.092-1.845,4.627a5.786,5.786,0,0,1-.257.647,1.177,1.177,0,0,1-2.021.081c-.208-.324-.405-.656-.607-.984-.182-.3-.322-.339-.668-.266-.442.094-.886.168-1.337.219a1.222,1.222,0,0,1-1.092-1.737c.762-1.459,1.476-2.944,2.219-4.413.075-.15.088-.236-.045-.358a3.686,3.686,0,0,1-.792-1.228,2.123,2.123,0,0,0-1.121-1.1A3.393,3.393,0,0,1,302.11,21a3.833,3.833,0,0,1-.042-1.444,2.307,2.307,0,0,0-.528-1.682,3.24,3.24,0,0,1-.637-2.506,4.1,4.1,0,0,1,.786-1.713,2.264,2.264,0,0,0,.348-1.608,3.219,3.219,0,0,1,.757-2.588,3.375,3.375,0,0,1,1.262-.912,2.722,2.722,0,0,0,1.428-1.511,3.146,3.146,0,0,1,2.367-1.829,5.541,5.541,0,0,1,1.366.014,2.442,2.442,0,0,0,1.586-.577,3.2,3.2,0,0,1,1.434-.6c.022,0,.039-.032.059-.05Zm-4.382,2.194a8.444,8.444,0,0,0-.968.048,2.127,2.127,0,0,0-1.48,1.327,3.5,3.5,0,0,1-1.96,1.932,2.251,2.251,0,0,0-1.358,2.434,3.2,3.2,0,0,1-.635,2.467,2.453,2.453,0,0,0-.538,1.48,2.71,2.71,0,0,0,.619,1.6,2.976,2.976,0,0,1,.554,2.3,2.1,2.1,0,0,0,.006.78,2.351,2.351,0,0,0,1.546,1.818,3.265,3.265,0,0,1,1.373,1.116c.308.39.4.893.719,1.276a2.121,2.121,0,0,0,1.9.863,3.63,3.63,0,0,1,2.845.72,2.023,2.023,0,0,0,1.389.452,2.633,2.633,0,0,0,1.484-.607,2.768,2.768,0,0,1,1.662-.6c.335-.007.67.037,1,.044A2.362,2.362,0,0,0,319.2,24.13a3.11,3.11,0,0,1,1.783-1.79,2.283,2.283,0,0,0,1.478-2.056,7.657,7.657,0,0,1-.026-1.309,3.372,3.372,0,0,1,.672-1.609,2.344,2.344,0,0,0,.094-2.813,3.9,3.9,0,0,1-.517-.874,3.2,3.2,0,0,1-.245-1.647,2.325,2.325,0,0,0-.338-1.719,2.788,2.788,0,0,0-1.2-.909,3.153,3.153,0,0,1-1.242-.957,6.3,6.3,0,0,1-.6-1.083,2.3,2.3,0,0,0-2.2-1.2,5.282,5.282,0,0,1-.886.042,3.054,3.054,0,0,1-1.819-.711,2.37,2.37,0,0,0-1.713-.466,2.571,2.571,0,0,0-1.289.584,3.368,3.368,0,0,1-2.376.585m7.339,20.381a2.344,2.344,0,0,0-1.431.526c-.171.117-.164.194-.091.369.347.833.67,1.677,1.005,2.515s.674,1.679,1.016,2.516c.041.1.084.229.226.224.114,0,.168-.1.224-.192.19-.325.4-.637.587-.965.406-.723.723-.689,1.492-.6.393.047.78.141,1.173.189.307.038.41-.1.28-.361q-1.072-2.166-2.155-4.327c-.048-.1-.077-.126-.21-.087-.257.076-.519.147-.783.206a6.819,6.819,0,0,1-1.333-.015m-7.506,6.153a.323.323,0,0,0,.256-.232q.182-.5.379-.987.831-2.08,1.67-4.156c.031-.077.042-.116-.024-.166a2.424,2.424,0,0,0-1.565-.606,4.07,4.07,0,0,1-2.065-.182c-.14-.068-.186-.034-.248.089q-1.073,2.171-2.153,4.338c-.105.212-.008.364.227.332.409-.055.812-.154,1.222-.2.746-.076,1.063-.141,1.516.624.2.341.421.673.624,1.014.042.072.075.131.161.126" transform="translate(-300.864 -4)" fill="#977a50"/>
  <path id="Caminho_250" data-name="Caminho 250" d="M328.538,22.84a8.927,8.927,0,0,1-17.834.6,8.54,8.54,0,0,1,2.219-6.5,8.636,8.636,0,0,1,7.431-2.962,8.906,8.906,0,0,1,8.184,8.858m-8.991-7.878a7.86,7.86,0,0,0-7.869,7.564,7.947,7.947,0,0,0,8.6,8.218,7.946,7.946,0,0,0,7.233-8.4,7.862,7.862,0,0,0-7.967-7.384" transform="translate(-307.726 -10.957)" fill="#977a50"/>
</svg>
