<?xml version="1.0" encoding="UTF-8"?>
<svg id="Camada_1" data-name="Camada 1" xmlns="http://www.w3.org/2000/svg" viewBox="0 0 45.5 31.27">
  <defs>
    <style>
      .cls-1 {
        fill: #fff;
        stroke-width: 0px;
      }
    </style>
  </defs>
  <path class="cls-1" d="m44.5,29.75c-.19,0-.37-.05-.54-.16L.46,1.84C0,1.55-.14.93.16.46.45,0,1.07-.14,1.54.16l43.5,27.75c.47.3.6.92.31,1.38-.19.3-.52.46-.85.46Z"/>
  <path class="cls-1" id="linha1" d="m40.15,23.6l1.7,1.08c3.5-7.79,2.07-17.27-4.31-23.66-.39-.39-1.02-.39-1.41,0s-.39,1.02,0,1.41c5.71,5.71,7.04,14.16,4.03,21.16Z"/>
  <path class="cls-1" id="linha1" d="m38.18,27.09c-.61.86-1.29,1.69-2.06,2.47-.39.39-.39,1.02,0,1.41.19.19.45.29.71.29s.51-.1.71-.29c.88-.88,1.64-1.82,2.33-2.81l-1.69-1.08Z"/>
  <path class="cls-1" id="linha2" d="m33.79,19.55l1.78,1.14c1.54-5.32.23-11.29-3.95-15.48-.39-.39-1.02-.39-1.41,0-.39.39-.39,1.02,0,1.41,3.5,3.5,4.69,8.44,3.59,12.93Z"/>
  <path class="cls-1" id="linha2" d="m32.25,23.31c-.56.94-1.24,1.84-2.05,2.65-.39.39-.39,1.02,0,1.41.19.19.45.29.71.29s.51-.1.71-.29c.92-.91,1.68-1.92,2.32-2.98l-1.68-1.08Z"/>
  <path class="cls-1" id="linha3" d="m27.02,15.23l2,1.28c.01-.2.03-.4.03-.61,0-3.08-1.2-5.97-3.38-8.15-.39-.39-1.02-.39-1.41,0-.39.39-.39,1.02,0,1.41,1.64,1.64,2.61,3.78,2.76,6.07Z"/>
  <path class="cls-1" id="linha3" d="m26.33,19.54c-.47,1.15-1.17,2.2-2.08,3.1-.39.39-.39,1.02,0,1.41.19.19.45.29.71.29s.51-.1.71-.29c1.01-1.01,1.79-2.17,2.36-3.43l-1.7-1.08Z"/>
  <polygon class="cls-1" points="19.37 10.35 19.37 5.13 15.89 8.12 19.37 10.35"/>
  <path class="cls-1" d="m12.17,10.5h-6.42c-.55,0-1,.51-1,1.14v8.23c0,.63.45,1.14,1,1.14h7.38l6.25,5.87v-11.78l-7.2-4.59Z"/>
</svg>