<svg xmlns="http://www.w3.org/2000/svg" width="27.848" height="28.014" viewBox="0 0 27.848 28.014">
  <path id="_73c0482f37cd99b2b06cd7d3eba8c43e" data-name="73c0482f37cd99b2b06cd7d3eba8c43e" d="M22.425,18.8c-.28-.14-2.1-.979-2.378-1.119a.659.659,0,0,0-.839.14c-.28.28-.839,1.119-1.119,1.4-.14.28-.42.28-.7.14a11.437,11.437,0,0,1-2.8-1.679A16.1,16.1,0,0,1,12.632,15.3a.615.615,0,0,1,.14-.7c.14-.14.28-.42.56-.56a1.061,1.061,0,0,0,.28-.56.426.426,0,0,0,0-.56A24.867,24.867,0,0,1,12.492,10.4c-.14-.979-.42-.979-.7-.979h-.7a1.6,1.6,0,0,0-.839.42,4.026,4.026,0,0,0-1.259,2.938,7.328,7.328,0,0,0,1.4,3.637A14.915,14.915,0,0,0,16.269,21.6a10.965,10.965,0,0,0,1.959.7,4,4,0,0,0,2.238.14,3.624,3.624,0,0,0,2.378-1.679,2.34,2.34,0,0,0,.14-1.679l-.56-.28m3.5-12.731A13.945,13.945,0,0,0,3.959,22.855L2,29.989l7.415-1.959A13.823,13.823,0,0,0,29.839,15.86a13.626,13.626,0,0,0-3.917-9.793M22.145,25.653a11.741,11.741,0,0,1-6.155,1.819,12.268,12.268,0,0,1-5.876-1.539l-.42-.28L5.358,26.772l1.119-4.2-.28-.42A11.747,11.747,0,0,1,9.974,6.067,11.38,11.38,0,0,1,25.782,9.7a11.544,11.544,0,0,1-3.637,15.948" transform="translate(-2 -1.975)" fill="#fff"/>
</svg>
