<svg id="Camada_1" data-name="Camada 1" xmlns="http://www.w3.org/2000/svg" viewBox="0 0 433.66 352.65"><defs><style>.cls-1,.cls-2,.cls-5{fill:#fff;}.cls-2{font-size:35.86px;}.cls-2,.cls-5{font-family:MaturaMTScriptCapitals, Matura MT Script Capitals;}.cls-3{letter-spacing:-0.01em;}.cls-4{letter-spacing:-0.02em;}.cls-5{font-size:25.5px;}.cls-6{letter-spacing:-0.01em;}.cls-7{letter-spacing:0.01em;}.cls-8{letter-spacing:0em;}</style></defs><title>logo-david</title><path class="cls-1" d="M-760.77,593.49c0-1.18-.05-2.21-.12-4.28a3.14,3.14,0,0,0-.31-1.37,3.57,3.57,0,0,0-1.47-1.5c-2.05-1.18-5.37-.89-9.5-1.51-2.49-.36-3.08-.73-3.42-1-1.19-.93-1.55-2.24-2.24-4.82s-1-3.85-.49-5.06c.13-.3.58-1.22,3.75-2.82,3-1.51,5.47-2.14,7.89-3.86a3.39,3.39,0,0,0,1.6-2.2,3.34,3.34,0,0,0-.22-1.25,19.77,19.77,0,0,0-1-2.67c-.26-.63-.21-.61-.82-2.56-1.27-4-1.7-4.74-2-5.22a5.32,5.32,0,0,0-2-1.89,4.77,4.77,0,0,0-2.15-.43c-2.62,0-4.51,1.11-8.31,2.32-3,.94-3.54.84-3.94.7-.76-.27-1.32-.8-3.44-4.76-2.23-4.16-2.27-4.81-2.16-5.41s.37-1.1,3.48-3.86c1.46-1.28,4.58-4,5.53-6a2.92,2.92,0,0,0,.24-2.23,2.11,2.11,0,0,0-.3-.54c-1.35-1.86-2.55-3.44-3.54-4.72-2.81-3.62-4.25-5.17-5.85-5.08a6.51,6.51,0,0,0-1.44.28,8,8,0,0,0-2.46,1.29,43.47,43.47,0,0,1-5.45,3.69,6.88,6.88,0,0,1-3.23,1.15,6.14,6.14,0,0,1-3.61-1.17c-.18-.12-3.82-2.59-3.92-6.35-.1-3.52,2.92-7.51,4.25-10.76a2.48,2.48,0,0,0,.15-1.83,3.06,3.06,0,0,0-.7-1,5.66,5.66,0,0,0-1-.79c-1.62-1-1.7-1.36-4.66-3.15-2.69-1.62-3.35-1.78-3.72-1.86a5.22,5.22,0,0,0-2.94.14,4.91,4.91,0,0,0-1.49.94,28.18,28.18,0,0,0-3.84,3.76,36.48,36.48,0,0,1-3.76,4.45,3.6,3.6,0,0,1-1.13.67,3.85,3.85,0,0,1-1.5.21,12.59,12.59,0,0,1-6.7-2.39,6,6,0,0,1-1.35-1.42,5.88,5.88,0,0,1-.78-1.86,13.31,13.31,0,0,1,.08-4.56c.09-.87.08-2.73.08-6.44a3.23,3.23,0,0,0-.36-1.56,3.27,3.27,0,0,0-.88-1,3.53,3.53,0,0,0-1.24-.6c-2.58-.72-4.59-1.08-4.59-1.08-2.68-.49-4-1-6-.92a3.84,3.84,0,0,0-1.69.43,4.18,4.18,0,0,0-1.5,1.43,4.9,4.9,0,0,0-.55,1.12c-.53,2.41-1.08,4.42-1.53,5.92-1.53,5.09-2.32,5.88-3.14,6.13-.15.05-1.22.12-3.37.22-1.47.08-3.07.14-3.74.17V492.45a.89.89,0,0,0,0-.66V490a4.11,4.11,0,0,1,.14-.64,11.57,11.57,0,0,1,1.08-3.74c2.52-6.24,7-8.32,14.08-6.69,7.53,1.73,13.42,6.1,18.69,11.49,1.71,1.76,3.33,3.61,5,5.37,1.1,1.13,2.28,2.28,4,1.12s1.41-2.66.59-4.27c-4.95-9.79-12.49-17.07-21.85-22.56-7.8-4.57-16-8.12-25.2-8.48-1.08,0-1.78-.31-1.52-1.56.34-1.65-.57-2-2-2-2.21,0-4.42,0-6.63,0-1.69,0-3.79-.5-3.69,2.39,0,.28-.48.67-.82.87-6.64,3.89-13.65,5.75-21.31,3.62a26.62,26.62,0,0,0-9.42-1.17,3.74,3.74,0,0,0-3.72,3.49c-.75,4.28.21,8.49.3,12.73,0,.65.19,1.29.24,1.95.36,5,.36,5,5.25,5.14,1,0,2,.08,2.95.15a5.69,5.69,0,0,0,5.6-2.57,7.9,7.9,0,0,1,2.39-2.28c2.48-1.48,5.73-1.18,8-.77a17.93,17.93,0,0,1,7,3.19,8.6,8.6,0,0,1,1.84,1.87,7.23,7.23,0,0,1,1.3,2.91s0,.22.17,2.21h0V683.45a4.46,4.46,0,0,0,4.46,4.46h8.56a4.47,4.47,0,0,0,4.11-2.72c.59-.15,1.61-.4,2.57-.54a7.91,7.91,0,0,1,4.74.4,4.26,4.26,0,0,1,1,.66,4.55,4.55,0,0,1,1.19,2.12A76.5,76.5,0,0,0-857,696.5a5.26,5.26,0,0,0,2,2.48,6.22,6.22,0,0,0,2,.69,6.39,6.39,0,0,0,1.56.07c1.92-.11,3.54-.35,4.89-.54a23.59,23.59,0,0,0,3.59-.6,4.17,4.17,0,0,0,2.36-1.17,3.71,3.71,0,0,0,.74-2.13,22.58,22.58,0,0,0-.12-5.13c-.06-.63-.14-1.91-.3-4.47-.2-3.09-.19-3.52.1-4.08.55-1.06,1.62-1.5,3.73-2.34,2.7-1.09,4.23-1.7,5.84-1.16,1,.34,1.76,1.29,3.25,3.21,2.23,2.88,4.78,6.48,4.78,6.48a3.16,3.16,0,0,0,1,1,3.42,3.42,0,0,0,1.83.39,4.15,4.15,0,0,0,1.87-.51,4.35,4.35,0,0,0,.45-.26c.58-.4,1.58-1,3.34-2.14a48.22,48.22,0,0,0,4.61-3.59,3.47,3.47,0,0,0,1.07-1.58,4,4,0,0,0,.08-1.5,8.27,8.27,0,0,0-.53-2.25c-1.43-3.61-2.31-5.39-2.31-5.39-1.72-3.48-1.82-3.54-1.79-4,.09-1.35,1.41-2.53,4.06-4.82,2.35-2,3.55-3.06,4.71-3.06.88,0,2.16,1,4.69,2.89,1.59,1.21,3.26,2.3,4.88,3.48a4.44,4.44,0,0,0,2.48,1.06,3.89,3.89,0,0,0,2.36-.7l.36-.33.64-.59c1.55-1.42,5.25-5.49,7.3-7.89a1.92,1.92,0,0,0,.26-.37,3,3,0,0,0,0-2.18c-.68-2.08-4.94-5.64-7.41-7.76-1.29-1.09-2.06-1.77-2.26-2.9-.25-1.35.47-2.51,1.3-3.84,1-1.59,2.27-3.67,4.6-4.35.9-.27,2.16-.07,4.67.31,1,.16,3.41.56,6.11.88a6.15,6.15,0,0,0,2.93-.42,2.74,2.74,0,0,0,1.15-1,2.3,2.3,0,0,0,.25-.53c.21-.62.51-1.05,1.91-4a31.57,31.57,0,0,0,2.37-5.93,3.62,3.62,0,0,0,.14-1.68,4.61,4.61,0,0,0-2-2.72,43.93,43.93,0,0,0-7.69-4.27c-2.05-1-2.78-1.28-3.26-2.19-.13-.24-.55-1.11-.07-4s.7-4.18,1.66-5.26c1.16-1.29,2.89-1.56,6.35-2.09a63.68,63.68,0,0,0,7-1.48,3.36,3.36,0,0,0,1.54-.92,4.59,4.59,0,0,0,.83-1.61,7.59,7.59,0,0,0,.28-1.13A31,31,0,0,0-760.77,593.49ZM-886,464.53a34.17,34.17,0,0,1-15.9,4.93,49.37,49.37,0,0,1-11.38-1.32c-3.44-.67-4.62.26-4.89,3.82a6.53,6.53,0,0,0-.07,1.46c.55,3.62-.68,7.1-.54,10.83-.36-.25-.6-.34-.6-.44-.16-5.3-.87-10.59-.22-15.89a2,2,0,0,1,2.18-1.87c1.05,0,2.11.15,3.17.21,4,.24,7.78,1.93,11.84,1.51a45.29,45.29,0,0,0,15.22-4.07c.66-.32,1.37-1,2.25-.44C-885,463.94-885.56,464.25-886,464.53ZM-875,669c-2.61-.31-5.24,0-7.86-.13-.53,0-1.54.81-1.49-1.06,0-1.3.88-.89,1.42-.9,2.21,0,4.43.06,6.64,0,1.07-.05,2.47,1.06,2.53-2.68s-1.27-2.78-2.39-2.83-2.46,0-3.69,0c-.32,0-.7,0-.76-.69-.09-1,.32-1.15.75-1.15a41.61,41.61,0,0,1,4.18,0c1.28.13,1.9-.31,1.9-2.93s-.63-2.91-1.9-2.92c-1.66,0-3.4.7-5.59-1,2.26-1.24,4-.76,5.62-.71,1.31,0,1.86-.38,1.87-3s-.64-2.9-1.9-2.92c-1.66,0-3.41.69-5-1.14a16,16,0,0,1,5.52-.55c.9,0,1.31-.34,1.33-2.07,0-2.42-.05-4-1.91-3.78-1.63.2-3.39.67-4.94-.9,1.75-1.32,3.53-.79,5.28-.81,1.12,0,1.63-.43,1.57-2.58-.08-2.48.08-4.23-3.65-2.5a5.6,5.6,0,0,1-5.14-.56c-.59-.33-1.59.75-1.93-2,3,0,5.94-.07,8.84,0,1.22,0,1.9-.09,1.91-2.83,0-3-.91-2.69-2-2.65s-2.45,0-3.68,0c-.47,0-1.1.19-1.15-1-.07-1.78.83-1,1.3-1.15a6,6,0,0,1,2.81-.21c2.06.56,2.7.32,2.73-2.54,0-2.53-.6-2.76-1.76-2.66-1.39.12-2.78,0-4.18,0-.41,0-.86,0-.91-1-.07-1.28.49-1.21,1-1.21,1.31,0,2.62-.09,3.93,0s1.94,0,1.94-2.76c0-3-1-2.57-2-2.56-1.31,0-2.62,0-3.93,0-.4,0-.86,0-.88-1s.36-1.16.81-1.16a38.85,38.85,0,0,1,4.18,0c1.28.13,1.88-.25,1.87-2.9s-.75-2.61-1.82-2.55c-1.39.08-2.79,0-4.18,0-.4,0-.87.06-.86-1s.42-1.07.86-1.07a26.38,26.38,0,0,1,4.17,0c1.4.2,1.81-.59,1.83-3,0-2.58-.74-2.62-1.83-2.59-2.94.06-5.88,0-9.42,0,1.25-2.58,2-1.56,2.7-1.91a5.33,5.33,0,0,1,3.34-.55c4,.84,5.18,1.61,5.21-2.34,0-2.72-.7-2.85-1.93-2.85-1.65,0-3.39.57-5-1.09a10.33,10.33,0,0,1,4.81-.62c1.3.11,2.07,0,2.08-3,0-3.27-1-2.72-2.18-2.84-1.57-.16-3.24.66-5.36-1.1,2.42-1,4.21-.66,6-.57,1.42.07,1.53-1,1.56-3,0-2.3-.41-3-1.69-2.81a23.44,23.44,0,0,1-3.93.08c-.45,0-1.15.28-1.19-.85-.06-1.54.76-1.12,1.23-1.13a17.7,17.7,0,0,1,3.64.07c1.36.25,2-.16,2-2.84s-.57-3.08-1.9-2.8c-1.68.35-3.43,1-5.31-1.21,2.05-1.42,3.82-.9,5.55-.7,1.31.15,1.63-.62,1.65-2.82,0-2.43-.53-2.75-1.74-2.68-2.53.15-5.06,0-7.59,0-.54,0-1.3.27-1.2-1.26.07-1.13.74-.79,1.2-.82,2.67-.16,5.35.28,8-.67.71-.25,1.48.39,1.34-1.86s-.37-3.25-2.44-2.52a4.4,4.4,0,0,1-3.1-.28c-.41-.15-1.25.31-1.31-1.09s.71-1,1.17-1.13a8.23,8.23,0,0,1,3.88-.17c1.77.46,1.54-1.47,1.72-3.07.25-2.23-.58-2.16-1.46-2.14-1.31,0-2.62.08-3.93,0-.49,0-1.3.61-1.36-.9s.74-1.17,1.26-1.18c1.15,0,2.29,0,3.44.05s2.17.25,2.14-2.93c0-3-1-2.62-2-2.6-1.31,0-2.63,0-3.94,0-.38,0-.87.12-.89-.9s.39-1.08.83-1.09a29,29,0,0,1,4.17,0c1.37.2,1.84-.51,1.85-3s-.62-2.67-1.77-2.7c-1.7-.06-3.46.61-5.11-.94,1.58-1.23,3.25-.78,4.88-.81,1.14,0,2,.16,2-2.73s-.64-3.21-2-3.12c-2.46.16-4.92.08-7.37,0-.5,0-1.22.43-1.28-1.77,2.93,0,5.84-.17,8.75.06,1.58.13,1.95-.8,1.9-3.34a27.64,27.64,0,0,1,.45-8.21,13.33,13.33,0,0,1,.56,5.22q0,39.34,0,78.7c0,25.4,0,50.8,0,76.2C-872.68,668.24-873.12,669.16-875,669Zm2-205.09c13.54-1.39,41,15.95,44.56,28.21C-839.67,476.9-854.89,468.09-873,463.86Zm12.57,132.83c-2.44,3-5.54,3.35-8.8,1.81V586.6c1.36.45,2.71-.05,4.06-.48l3.63,1.1C-859.19,590.16-857.77,593.38-860.44,596.69Zm48.11,43.88a70.22,70.22,0,0,1-25.07,20.48,87.72,87.72,0,0,1-20.33,6.12,65.42,65.42,0,0,1-9.82.9c-.45-.06-.9,0-1.34,0a.82.82,0,0,0-.35,0V630.63l.38-.36c5.7.2,11.4.19,17.1.42,2.08.08,3.66-.49,3.73-2.78.07-2.55-1.62-3.21-3.9-3.17-5.73.11-11.47.06-17.21.12l-.1-.1v-3c1,.28,1.86,1.43,3.07.86,4.87,0,9.73,0,14.6,0,2,0,3.55-.85,3.68-3s-1.49-3.21-3.42-3.28c-5.16-.17-10.37-.92-15.47,1.24l-2.46-1.59V611.9c4.13.06,8.27.14,12.4.15,8.61,0,8.61,0,11.42-8q2.34-4,4.69-8c1.54-3,3.87-5.56,4.74-8.91.43-1,1.4-1.85,1.16-3.12h0c1.06-.62,1.15-1.7,1.29-2.75,4.09,1.16,3.59,4.68,4,7.75a1.26,1.26,0,0,1,1,1.18,1.25,1.25,0,0,0-1-1.17c-1.53,3.16-3.29,6.11-6.92,7.25l-4.24-.22q-2.35,4-4.69,8c1.95-.05,3.9,0,5.84-.16,7.77-.65,12.9-5.7,13.69-13.39l-1.89-.7c-1.12,1.68-1.93,3.6-3,5.32.81-1.32,1.48-2.75,2.24-4.1l2.67-.9a9.14,9.14,0,0,0-1.15-5.64c-4.12-8.39-11.17-13.72-19-18.32-2.06-1.22-3.72-.15-5.51.5a9.26,9.26,0,0,1-6.06-2.29c-2.36-6.81-.2-9.91,7.09-10.18l2-.63-2,.63,2.28,1.24,1.69,2.62a2.74,2.74,0,0,0,1.66,2.64c6.69,3.23,12.29,7.94,17.52,13.14.17.18.81-.11,2-.33l-10.46-11.07a2.4,2.4,0,0,0-.55-3.1c-4.52-9.51-12.48-13.79-22.52-14.65-3.47-.3-7,.08-10.43-.8V522.56c.09,0,.52-.09.52-.07h0A74,74,0,0,1-832.28,533c20.89,12.66,35.23,36.24,35.54,61.91C-796.44,618.78-808.44,635.57-812.33,640.57Zm-37.11-65.17a14.17,14.17,0,0,1,7.9,1.81h0A14.17,14.17,0,0,0-849.44,575.4Z" transform="translate(987.47 -458.1)"/><path class="cls-1" d="M-859.26,632.77a10.4,10.4,0,0,0-2.88.11c1.72,1.46,2.43,3.51,3.26,5.49-.83-2-1.54-4-3.27-5.49l-4,0c-2.43-.64-2.31,1-2.21,2.53.32,5,5,7.78,10.14,6.08l.46,0,.39-.22c3.13-1.28,4.66-3.91,3.91-6.93S-857.26,633.25-859.26,632.77Z" transform="translate(987.47 -458.1)"/><path class="cls-1" d="M-852.21,557.12a3.1,3.1,0,0,0-3.53,3.23c-.06,1.9,1.27,3,3.08,3.22,2.17.29,3.38-.84,3.8-3A3.34,3.34,0,0,0-852.21,557.12Z" transform="translate(987.47 -458.1)"/><path class="cls-1" d="M-865.33,589.36a2.92,2.92,0,0,0-2.95,3.3c0,2.13.78,3.58,3.15,3.42a3,3,0,0,0,3-3.21C-862.07,590.6-863.4,589.66-865.33,589.36Z" transform="translate(987.47 -458.1)"/><path class="cls-1" d="M-673.57,507.37a10,10,0,0,0,.93-2.47l1.06-2.57A4.34,4.34,0,0,0-671,501l1-1.42c2-2.52,4.77-3.67,7.73-4.5.9-.25,1.8-.47,2.7-.7a1.07,1.07,0,0,0,.78-.18h0a1.43,1.43,0,0,0,1-.2h0l1,0-.37.55-.72.86-.25.43a1.09,1.09,0,0,0-.62.75l-.15.21-.16.21,0,0-.13.17a9.24,9.24,0,0,0-.47,6.28,3.32,3.32,0,0,0,.8,1.74,4.42,4.42,0,0,0,3.86,2.13,19.94,19.94,0,0,1,3.49.22c1.62.15,3.23.44,3.23.44h0s-1,3.18-1.38,5.12a1.54,1.54,0,0,1-.48.89,1.66,1.66,0,0,1-1,.29,73.59,73.59,0,0,0-36.22,11c-18.18,11.11-30.09,27-35.49,47.68a75.35,75.35,0,0,0-2.24,25.51,77.19,77.19,0,0,0,16.12,41.68,77.94,77.94,0,0,0,33.6,25.19,73.59,73.59,0,0,0,20,4.84,64.88,64.88,0,0,0,8,.34c1,0,1.5.24,1.7,1.23a23.13,23.13,0,0,0,.72,2.23,12.67,12.67,0,0,0,.82,2.53l.07.39.14.37.16.54h0l-4.47-.41c-.4,0-1.15-.24-1.12,0,.12,1-.77,1.32-1.21,1.93a29.14,29.14,0,0,0-3.21,3.88l-.14.17a16.57,16.57,0,0,1-3.13,3.7,11.55,11.55,0,0,1-3.91,2.05,7.39,7.39,0,0,1-2.32.19c-2.63.08-5.27.14-7.88.2-.21-.45.16-.56.36-.72a15.68,15.68,0,0,0,3.33-3.28,7.36,7.36,0,0,0,1-5.65,5.79,5.79,0,0,0-1.54-2.85c-1-1.16-2.56-1.66-4.85-.74a10.2,10.2,0,0,0-.93.48,1,1,0,0,0-.59.39l-.78.61a3.79,3.79,0,0,0-1.26,1.09l-1.81,1.52a12.4,12.4,0,0,1-4.55,2.5,8.43,8.43,0,0,1-3.66.52,30.77,30.77,0,0,1-5.83-1.33L-695.7,681l.94-.58a.12.12,0,0,0,.13-.11l.26-.08.17-.11.21-.06a5.07,5.07,0,0,0,1.77-1c.15,0,.33,0,.37-.21a4.84,4.84,0,0,0,1.39-1.39,6.53,6.53,0,0,0,1.17-7.54,4.47,4.47,0,0,0-4.89-2,18.4,18.4,0,0,0-3.71,1.51c-2.39,1.13-4.77,2.18-7.56,2.11a14,14,0,0,1-6.17-1.76,32.09,32.09,0,0,1-5.82-3.78c1.22-.2,2.49.1,3.69-.35l.39-.06a.37.37,0,0,0,.41-.15,2.66,2.66,0,0,0,1.53-.69c.12,0,.17,0,.18-.15a7,7,0,0,0,3.37-4.86c.5-2.64-.89-4.72-3.91-5.38-1.6-.35-3,.2-4.52.42-2.42.35-4.8,1.16-7.3.16-.76-.31-1.68-.35-2.47-.74l-2.29-1.47-.71-.64a6.25,6.25,0,0,0-1.12-1.06,27.46,27.46,0,0,1-4.2-4.68l.15-.14.41.14.19.08.2.07a3.14,3.14,0,0,0,1.2.31,7.39,7.39,0,0,0,8.16-3.34,1.6,1.6,0,0,0,.36-.87c.31-.35.29-.82.46-1.22.31-1.11-.26-2.08-.45-3.11a1.37,1.37,0,0,0-.74-.77h0l-.21-.16,0,0-.15-.14-.21-.06-.18-.09a7.05,7.05,0,0,0-3.42-1,59.45,59.45,0,0,1-6.51-.85,12.32,12.32,0,0,1-2.73-1.24,2.51,2.51,0,0,0-1.17-.77c-2.56-2-3.92-4.88-5.34-7.7l-.14-.2h0a5,5,0,0,0-.83-1.56c-.08-.22-.17-.44-.25-.65h.22A11.86,11.86,0,0,0-741.3,625c2.81.39,5.35-.09,7.28-2.39a2.43,2.43,0,0,0,.89-1.23,4,4,0,0,0,0-3.53c0-.21,0-.46-.23-.58a7.71,7.71,0,0,0-3.09-2.32c-2.07-.81-4.2-1.48-6.22-2.43-.27-.12-.4-.38-.67-.47a16,16,0,0,0-2.34-1.75,11.92,11.92,0,0,1-1.7-2.47c-.25-.53-.51-1-.76-1.57-1-2.67-1.34-5.51-2.21-8.44,1.8,1.62,3.4,3.24,5.79,3.47a.62.62,0,0,0,.6.1,13.31,13.31,0,0,0,2.75,0c.22,0,.45.09.59-.16.7-.36,1.39-.74,2.09-1.09,1.38-.71,2.51-3.95,1.33-5.59-.47-.65-1.29-1-1.5-1.8a3.67,3.67,0,0,0-1.59-1.3,43.83,43.83,0,0,1-4.35-3.08,5.19,5.19,0,0,0-1.63-1.73,28.28,28.28,0,0,1-1.74-4.34,25.37,25.37,0,0,1-.22-7.63c0-.61,0-1.23,0-1.84,0-.12,0-.28.13-.33a.31.31,0,0,1,.37.23,7.57,7.57,0,0,0,3.16,3.63,5.56,5.56,0,0,0,2.35,1.18,3.34,3.34,0,0,0,1.54.11l1.38,0a1.33,1.33,0,0,0,1-.16,4.14,4.14,0,0,0,3.29-2.42l.1-.19.07-.41a3.26,3.26,0,0,0,0-2.34,8.2,8.2,0,0,0-2.3-3.85,16.53,16.53,0,0,1-3.37-4.38,11.16,11.16,0,0,1-1.38-7.26,66.89,66.89,0,0,1,2.15-8.11c.41.25.48.65.69,1a8.78,8.78,0,0,0,.9,2c.13.69.81,1,1.13,1.51a.82.82,0,0,0,.5.43h0a7.46,7.46,0,0,0,2.05,1.61,8.18,8.18,0,0,0,4.32.49.63.63,0,0,0,.55-.17l.23,0a.34.34,0,0,0,.37-.16l.21-.09.18-.12c.51-.29,1-.54,1.23-1.18a1.22,1.22,0,0,0,.45-.72l.06-.24a.18.18,0,0,0,.13-.25,3.54,3.54,0,0,0-.27-3.24,2.54,2.54,0,0,1-.22-1c-.25-1.15-1.09-2-1.52-3a17.73,17.73,0,0,1-1.57-5.81,12.39,12.39,0,0,1,1.69-6.87,24.65,24.65,0,0,0,2-3.32l.15-.24,0,0,.12-.15a9.17,9.17,0,0,1,1.61-2,13.4,13.4,0,0,0,.25,2.6c0,2.8,1.46,4.66,3.76,6,.56.32,1.14.6,1.71.9l.18.08.41,0h1.17l.6,0a.75.75,0,0,0,.56-.13l.4-.08.22-.12c1.53-.53,2.05-1.84,2.44-3.23s-.05-3-.32-4.44c-.74-4.06-1.17-8,1.43-11.76a33.16,33.16,0,0,1,3.32-3.57c.43-.47.7-1.08,1.31-1.37l1.34-1.36.24-.17a.07.07,0,0,0,.12,0c.25,0,.82-.39.55.36a10,10,0,0,0-.1,6.69,1.18,1.18,0,0,0,.38.94,8.62,8.62,0,0,0,2.59,2.33,2.7,2.7,0,0,0,1,.61c1.36,1,2.65.5,3.93-.19a1.47,1.47,0,0,0,.77-.57h0a1,1,0,0,0,.54-.59,10.35,10.35,0,0,0,1.47-5,22.49,22.49,0,0,1,.29-4.07,11.85,11.85,0,0,1,5.15-7.85,49.2,49.2,0,0,1,6.66-3.71,1.55,1.55,0,0,1,.71-.05,7.3,7.3,0,0,0-1.9,4.22.56.56,0,0,0-.13.51l0,.59a7.67,7.67,0,0,0,1.46,4.88l.18.19.22.21c.16.39.57.48.86.73A2.77,2.77,0,0,0-680,511l.62.41c0,.09.06.16.17.12a1.41,1.41,0,0,0,.79,0,.77.77,0,0,0,.59-.14,5.36,5.36,0,0,0,4-3.44Z" transform="translate(987.47 -458.1)"/><path class="cls-1" d="M-700.88,615.22a47.37,47.37,0,0,0,3.63,7,.09.09,0,0,0,.08.13l0,0,.18.36c.72,1,1.43,2.1,2.14,3.16a4,4,0,0,0,.88,1.15,5.4,5.4,0,0,0,1,1.33l.74.9a40.39,40.39,0,0,0,5.14,5.4l1.37,1.18a24,24,0,0,0,3.8,3,8,8,0,0,0,1.61,1.15c2.44,1.44,4.69,3.14,7.6,4a9.51,9.51,0,0,1,3.21,1.72,5.24,5.24,0,0,0,1.55.62l.35.12.8.25a1.59,1.59,0,0,0,.79.3l.27.05c0,.06,0,.08.1.07a35.28,35.28,0,0,0,6.15,1.55,4.86,4.86,0,0,0,1.56.31l.4,0a5.56,5.56,0,0,0,1.77.29,58.72,58.72,0,0,0,12.64.34c.43,0,1-.18.94.56l0,.2,0,.39c.32,5.92.15,6.26.15,6.26,0,5.11.21,10.4.21,10.4h0s-3.17.07-4.94.08a57.33,57.33,0,0,1-6.85-.17,73.73,73.73,0,0,1-40.63-16.34,74.64,74.64,0,0,1-25.41-37.55,71.71,71.71,0,0,1-2.9-25.26c1.45-21,10.14-38.54,25.9-52.5a74.69,74.69,0,0,1,36.44-17.51,36.05,36.05,0,0,1,9.44-.88c1.35.08,5.29.4,5.29.4h0l0,1.44s.31,12.28.31,12.52a9.8,9.8,0,0,0,.05,2.36v1l0,0-.6,0c-2.07,0-4.16-.08-6.22.08a57.63,57.63,0,0,0-7.43,1,60.42,60.42,0,0,0-11.4,3.54c-1.55.68-3,1.51-4.57,2.19a2.28,2.28,0,0,0-1.16.6h0a1.32,1.32,0,0,0-.74.42h0l-.24.16a64.13,64.13,0,0,0-9.77,7.34,4.13,4.13,0,0,0-1.56,1.57c-1.44,1.3-2.62,2.85-4,4.26-.25.26-.45.54-.68.82s-.5.38-.48.75l-.2.23a3.48,3.48,0,0,0-1.11,1.56,65.1,65.1,0,0,0-3.72,6.3c-.85,1.76-1.81,3.46-2.52,5.3a59.6,59.6,0,0,0-3,10,52.94,52.94,0,0,0-1,7.41,58.49,58.49,0,0,0,.85,14.52c.66,3.36,1.73,6.56,2.69,9.82.13.46.72.72.63,1.3Z" transform="translate(987.47 -458.1)"/><path class="cls-1" d="M-681.51,607.89l.14.28c.07,0,.22.16.23-.08l-.23.08c.14-.17.07-.24-.12-.25v0Z" transform="translate(987.47 -458.1)"/><text class="cls-2" transform="translate(0 335.74)">Ma<tspan class="cls-3" x="70.22" y="0">r</tspan><tspan x="83.56" y="0">cenaria e Mec</tspan><tspan class="cls-3" x="312.51" y="0">a</tspan><tspan x="329.6" y="0">t</tspan><tspan class="cls-4" x="341.55" y="0">r</tspan><tspan x="354.48" y="0">onica</tspan></text><text class="cls-5" transform="translate(102.48 273.11)">D<tspan class="cls-6" x="32.13" y="0">a</tspan><tspan x="44.28" y="0">vid Corrêa </tspan><tspan class="cls-7" x="171.75" y="0">F</tspan><tspan class="cls-8" x="202.6" y="0">ilho</tspan></text><rect class="cls-1" y="285" width="433.66" height="5.5" rx="1.26"/></svg>