<svg id="Layer_1" data-name="Layer 1" xmlns="http://www.w3.org/2000/svg" viewBox="0 0 367.6 512"><defs><style>.cls-1{fill:#fff;}</style></defs><title>lua</title><path class="cls-1" d="M-396.3,242.4c0-109.9,88.7-191.3,171.2-220.4l25.2-8.9L-224.3,2.2C-248.1-8.4-276.5-13.6-311-13.6c-141.2,0-256,114.8-256,256s114.8,256,256,256c34.4,0,60.2-4.7,86.3-15.7l25.3-10.7-25.9-9.2c-82.4-29.1-171-110.5-171-220.4ZM-311,477.1c-129.4,0-234.7-105.3-234.7-234.7S-440.4,7.8-311,7.8c19.8,0,36.8,1.7,51.9,5.2-80.7,38.4-158.6,121.1-158.6,229.4s77.8,190.9,158.4,229.3C-274.5,475.5-290.9,477.1-311,477.1Z" transform="translate(567 13.6)"/></svg>