<svg id="Layer_1" data-name="Layer 1" xmlns="http://www.w3.org/2000/svg" viewBox="0 0 511.9 511.9"><defs><style>.cls-1{fill:#fff;}</style></defs><title>sol</title><path class="cls-1" d="M-384,309.3A106.74,106.74,0,0,1-490.7,202.6,106.65,106.65,0,0,1-384,96,106.74,106.74,0,0,1-277.3,202.7,106.65,106.65,0,0,1-384,309.3Zm0-170.6a64.19,64.19,0,0,0-64,64,64.19,64.19,0,0,0,64,64,64.19,64.19,0,0,0,64-64A64.19,64.19,0,0,0-384,138.7ZM-362.7,32V-32A21.38,21.38,0,0,0-384-53.3,21.38,21.38,0,0,0-405.3-32V32A21.38,21.38,0,0,0-384,53.3,21.38,21.38,0,0,0-362.7,32Zm0,405.3v-64A21.38,21.38,0,0,0-384,352a21.38,21.38,0,0,0-21.3,21.3v64A21.38,21.38,0,0,0-384,458.6,21.32,21.32,0,0,0-362.7,437.3ZM-533.3,202.7a21.38,21.38,0,0,0-21.3-21.3h-64a21.38,21.38,0,0,0-21.3,21.3A21.38,21.38,0,0,0-618.6,224h64A21.38,21.38,0,0,0-533.3,202.7Zm405.3,0a21.38,21.38,0,0,0-21.3-21.3h-64a21.38,21.38,0,0,0-21.3,21.3A21.38,21.38,0,0,0-213.3,224h64A21.38,21.38,0,0,0-128,202.7ZM-496.9,89.8a21.31,21.31,0,0,0,0-30.1L-539.6,17a21.31,21.31,0,0,0-30.1,0,21.31,21.31,0,0,0,0,30.1L-527,89.8A20.85,20.85,0,0,0-511.9,96a21.52,21.52,0,0,0,15.1-6.2Zm298.7,298.7a21.31,21.31,0,0,0,0-30.1l-42.7-42.7a21.31,21.31,0,0,0-30.1,0,21.31,21.31,0,0,0,0,30.1l42.7,42.7a20.85,20.85,0,0,0,15.1,6.2,21.52,21.52,0,0,0,15.1-6.2Zm-341.3,0,42.7-42.7a21.31,21.31,0,0,0,0-30.1,21.31,21.31,0,0,0-30.1,0l-42.7,42.7a21.31,21.31,0,0,0,0,30.1,20.85,20.85,0,0,0,15.1,6.2,21.52,21.52,0,0,0,15.1-6.2ZM-240.9,89.8l42.7-42.7a21.31,21.31,0,0,0,0-30.1,21.31,21.31,0,0,0-30.1,0L-271,59.7a21.31,21.31,0,0,0,0,30.1A20.85,20.85,0,0,0-255.9,96a21.52,21.52,0,0,0,15.1-6.2Z" transform="translate(639.9 53.3)"/></svg>