<svg xmlns="http://www.w3.org/2000/svg" width="17.391" height="17.391" viewBox="0 0 17.391 17.391">
  <path id="facebook_fb_face_book" data-name="facebook fb face book" d="M17.047,3H6.344A3.344,3.344,0,0,0,3,6.344v10.7a3.344,3.344,0,0,0,3.344,3.344H11.7a.669.669,0,0,0,.669-.669V14.371A.669.669,0,0,0,11.7,13.7h-.669V12.364H11.7a.669.669,0,0,0,.669-.669V9.354a1.672,1.672,0,0,1,1.672-1.672h1.672V9.02H15.04A1.338,1.338,0,0,0,13.7,10.358V11.7a.669.669,0,0,0,.669.669h1.15L15.187,13.7h-.816a.669.669,0,0,0-.669.669v2.676a.669.669,0,0,0,1.338,0V15.04h.669a.669.669,0,0,0,.669-.508l.669-2.676a.664.664,0,0,0-.669-.829H15.04v-.669h1.338a.669.669,0,0,0,.669-.669V7.013a.669.669,0,0,0-.669-.669H14.037a3.017,3.017,0,0,0-3.01,3.01v1.672h-.669a.669.669,0,0,0-.669.669v2.676a.669.669,0,0,0,.669.669h.669v4.013H6.344a2.007,2.007,0,0,1-2.007-2.007V6.344A2.007,2.007,0,0,1,6.344,4.338h10.7a2.007,2.007,0,0,1,2.007,2.007v10.7a2.007,2.007,0,0,1-2.007,2.007H14.371a.669.669,0,0,0,0,1.338h2.676a3.344,3.344,0,0,0,3.344-3.344V6.344A3.344,3.344,0,0,0,17.047,3Z" transform="translate(-3 -3)" fill="#fff"/>
</svg>
