<svg width="41" height="52" viewBox="0 0 41 52" fill="none" xmlns="http://www.w3.org/2000/svg">
<g clip-path="url(#clip0_14_31)">
<path d="M15.7464 35.3088C15.2779 35.3088 14.6245 35.1643 13.9957 34.5623C11.7642 32.3951 11.5423 25.8333 11.6039 24.1958C11.6656 22.7269 11.2217 21.7998 10.6793 20.6199C10.2971 19.8132 9.86557 18.8982 9.59434 17.7183C8.91625 14.8407 9.64365 12.9022 10.3711 11.7825C11.419 10.1812 12.9971 9.36244 14.1437 9.12164C15.8327 8.77248 17.1396 9.24204 18.2985 9.6514C19.1615 9.96445 19.9752 10.2534 20.9245 10.2293C21.6396 10.2173 22.4163 9.97649 23.2423 9.72364C24.5985 9.30224 25.9916 8.8688 27.4218 9.33836C29.1848 9.91629 31.1697 11.6621 31.4533 13.5765C31.7122 15.2862 31.293 16.9597 30.8122 18.5249C30.6519 19.0306 30.467 19.5243 30.282 19.9938C29.9122 20.9691 29.5546 21.8962 29.4807 22.8232C29.4314 23.5216 29.4683 24.2319 29.5177 24.9905C29.567 25.9175 29.6286 26.8808 29.493 27.868C29.2094 30.0593 28.8149 31.769 28.3218 32.9249C27.545 34.779 26.5464 35.1162 25.819 35.0439C23.5012 35.0078 23.156 32.5276 23.0204 31.5884C22.8724 30.5048 22.4163 27.2299 21.6396 26.5677C21.2944 26.2667 20.8259 26.1463 20.5053 26.2547C18.7916 26.8808 18.4217 29.9991 18.2491 31.4921C18.2122 31.8533 18.1752 32.1302 18.1259 32.347C17.9656 33.1296 17.5587 35.2004 15.845 35.2727C15.808 35.3088 15.7711 35.3088 15.7464 35.3088ZM15.3026 10.7711C15.0437 10.7711 14.7848 10.7952 14.5012 10.8554C13.7615 11.0119 12.6272 11.5899 11.8875 12.7337C11.0984 13.9497 10.9135 15.4908 11.345 17.3209C11.5793 18.3323 11.9615 19.1269 12.319 19.8855C12.8861 21.1015 13.4779 22.3657 13.4163 24.256C13.3053 27.1697 13.9587 32.0219 15.2779 33.2981C15.5368 33.551 15.7094 33.5389 15.7711 33.5389C15.808 33.5269 16.0793 33.3824 16.3505 32.0339C16.3752 31.8894 16.4122 31.6245 16.4491 31.3115C16.6587 29.4694 17.1149 25.6286 19.8642 24.6172C20.8012 24.2681 21.9601 24.5209 22.8231 25.2433C23.7478 26.0259 24.3026 27.7356 24.8081 31.3597C25.0546 33.1416 25.4615 33.2861 25.8683 33.2861H25.9176H25.967C26.0409 33.25 27.0272 32.6841 27.693 27.6393C27.804 26.8206 27.7546 25.9778 27.7053 25.0868C27.656 24.3162 27.619 23.5095 27.6807 22.6908C27.767 21.5109 28.1861 20.4273 28.593 19.3677C28.7779 18.8982 28.9505 18.4407 29.0861 17.9952C29.5053 16.6346 29.8752 15.1898 29.6656 13.8293C29.493 12.6494 28.0382 11.3972 26.8423 10.9999C25.9793 10.7109 24.9067 11.0481 23.7848 11.3972C22.8724 11.6741 21.9231 11.9751 20.9491 11.9872C19.6546 12.0113 18.5943 11.626 17.6697 11.3009C16.8437 11.036 16.1163 10.7711 15.3026 10.7711Z" fill="#fff"/>
<path d="M20.8382 13.4561C19.1368 13.4561 17.6574 13.131 16.8067 12.6373C17.2629 13.3959 18.8903 13.9738 20.8382 13.9738C22.7862 13.9738 24.4136 13.4079 24.8697 12.6373C24.019 13.131 22.5273 13.4561 20.8382 13.4561Z" fill="#fff"/>
<path d="M20.5793 51.3221L19.7656 50.8044C13.4902 46.771 8.43542 41.3409 5.15597 35.1162C1.88884 28.8794 0.434043 21.9684 0.97651 15.1176L2.09843 0.789917L3.6272 1.04276C14.8834 2.87285 26.2998 2.87285 37.5437 1.04276L39.0724 0.789917L40.1944 15.1176C40.7368 21.9684 39.282 28.8915 36.0026 35.1162C32.7231 41.3409 27.6683 46.771 21.393 50.8044L20.5793 51.3221ZM4.65049 3.67954L3.73816 15.2741C2.7272 28.1931 9.00255 40.462 20.5793 48.288C32.156 40.474 38.4437 28.2052 37.4204 15.2862L36.5204 3.67954C25.9423 5.25679 15.2286 5.25679 4.65049 3.67954Z" fill="#fff"/>
</g>
<defs>
<clipPath id="clip0_14_31">
<rect width="39.4398" height="50.5322" fill="white" transform="translate(0.86554 0.789917)"/>
</clipPath>
</defs>
</svg>
