<svg xmlns="http://www.w3.org/2000/svg" width="18.565" height="18.565" viewBox="0 0 18.565 18.565">
  <path id="af2da8f3726c5aa836b9ea2eeab70e0c" d="M16.239,5.212h0a1.114,1.114,0,1,0,1.114,1.114A1.114,1.114,0,0,0,16.239,5.212Zm4.27,2.246A7.045,7.045,0,0,0,20.082,5.2a4.586,4.586,0,0,0-1.077-1.643,4.363,4.363,0,0,0-1.643-1.067,6.776,6.776,0,0,0-2.256-.436C14.123,2,13.807,2,11.283,2s-2.84,0-3.824.056A6.776,6.776,0,0,0,5.2,2.492,4.437,4.437,0,0,0,3.559,3.559,4.363,4.363,0,0,0,2.492,5.2a6.776,6.776,0,0,0-.436,2.256C2,8.442,2,8.758,2,11.283s0,2.84.056,3.824a6.776,6.776,0,0,0,.436,2.256,4.363,4.363,0,0,0,1.067,1.643A4.437,4.437,0,0,0,5.2,20.073a6.776,6.776,0,0,0,2.256.436c.984.056,1.3.056,3.824.056s2.84,0,3.824-.056a6.776,6.776,0,0,0,2.256-.436,4.363,4.363,0,0,0,1.643-1.067,4.5,4.5,0,0,0,1.077-1.643,7.045,7.045,0,0,0,.427-2.256c0-.984.056-1.3.056-3.824S20.565,8.442,20.509,7.458ZM18.838,15a5.207,5.207,0,0,1-.316,1.727,2.84,2.84,0,0,1-.7,1.067,2.961,2.961,0,0,1-1.067.7,5.207,5.207,0,0,1-1.727.316c-.928.046-1.272.056-3.713.056s-2.785,0-3.713-.056a5.319,5.319,0,0,1-1.8-.278,3.035,3.035,0,0,1-1.021-.7A2.785,2.785,0,0,1,4.1,16.759,5.142,5.142,0,0,1,3.727,15c0-.928-.056-1.272-.056-3.713s0-2.785.056-3.713a5.143,5.143,0,0,1,.325-1.764,2.785,2.785,0,0,1,.733-1.021,2.915,2.915,0,0,1,1.021-.743A5.319,5.319,0,0,1,7.57,3.727c.928,0,1.272-.056,3.713-.056s2.785,0,3.713.056a5.208,5.208,0,0,1,1.727.316,2.84,2.84,0,0,1,1.1.743,2.84,2.84,0,0,1,.7,1.021,5.207,5.207,0,0,1,.316,1.764c.046.928.056,1.272.056,3.713S18.885,14.067,18.838,15ZM11.283,6.521a4.753,4.753,0,1,0,3.376,1.389,4.762,4.762,0,0,0-3.376-1.389Zm0,7.853a3.091,3.091,0,1,1,3.091-3.091,3.091,3.091,0,0,1-3.091,3.091Z" transform="translate(-2 -2)" fill="#fff"/>
</svg>
