<svg id="Camada_1" data-name="Camada 1" xmlns="http://www.w3.org/2000/svg" viewBox="0 0 45.33 25.64">
  <defs>
    <style>
      .cls-1 {
        font-size: 12px;
        fill: #fff;
        font-family: MyriadPro-Regular, Myriad Pro;
      }
      .cls-2 {
        fill: none;
        stroke: #fff;
        stroke-miterlimit: 10;
      }
    </style>
  </defs><text class="cls-1" transform="translate(14.78 13.83)">DC</text>
  <path class="cls-2"
    d="M-23.49-2.18A9.14,9.14,0,0,1-32.62,7c-5.23,0-8.63-4.64-9.08-8.16a6.73,6.73,0,0,1-.06-1c.1-3.66,3.37-9.13,9.14-9.13A9.13,9.13,0,0,1-23.49-2.18Z"
    transform="translate(54.75 11.81)" />
  <path class="cls-2"
    d="M-12.37,9.64A122.71,122.71,0,0,0-32.19,8.05,123.09,123.09,0,0,0-51.74,9.64l-1.06,1.79-1,1.79A189.46,189.46,0,0,1-32.08,12a189.42,189.42,0,0,1,21.74,1.25Z"
    transform="translate(54.75 11.81)" />
  <path class="cls-2" d="M-40.73,1.75A4,4,0,0,1-41,4.65c-.73,1.21-1.74,3,.06,3.73" transform="translate(54.75 11.81)" />
  <path class="cls-2" d="M-24.37,1.75a4.79,4.79,0,0,0,.12,2.85c.43,1.11,1.22,1.63,1.09,2.49A2,2,0,0,1-24,8.31"
    transform="translate(54.75 11.81)" />
</svg>