<svg xmlns="http://www.w3.org/2000/svg" xmlns:xlink="http://www.w3.org/1999/xlink" width="168" height="28.67" viewBox="0 0 168 28.67">
  <defs>
    <clipPath id="clip-path">
      <rect id="Retângulo_16" data-name="Retângulo 16" width="168" height="28.67" fill="none"/>
    </clipPath>
  </defs>
  <g id="Grupo_5" data-name="Grupo 5" transform="translate(0 0)">
    <g id="Grupo_4" data-name="Grupo 4" transform="translate(0 0)" clip-path="url(#clip-path)">
      <path id="Caminho_8" data-name="Caminho 8" d="M371.49.387a.33.33,0,0,0-.28-.152h-2.446a.335.335,0,0,0-.3.2L358.334,23.326l-3.681-8.713c-.622-1.473-1.354-3.282-1.985-4.86a.333.333,0,0,0-.306-.208h-2.607a.337.337,0,0,0-.277.149.333.333,0,0,0-.03.312l7.44,17.841a1.521,1.521,0,0,0,1.411.934h.033a1.5,1.5,0,0,0,.9-.271,1.548,1.548,0,0,0,.544-.667l8.535-20.2L371.511.7a.336.336,0,0,0-.021-.319Z" transform="translate(-203.542 -0.137)" fill="#008dff"/>
      <path id="Caminho_9" data-name="Caminho 9" d="M334.413,25.177a7.9,7.9,0,0,1-7.2-7.845V6.631h7.38V4.256a.97.97,0,0,0-.97-.97h-6.407V.265A.265.265,0,0,0,326.95,0H324a.265.265,0,0,0-.265.265V3.286h-3.883a.97.97,0,0,0-.97.97v1.4a.97.97,0,0,0,.97.97h3.878V17.436a.235.235,0,0,0,0,.039,11.373,11.373,0,0,0,10.642,11.2h.015a.268.268,0,0,0,.182-.072.263.263,0,0,0,.083-.193V25.438a.267.267,0,0,0-.244-.265Z" transform="translate(-185.752 0)" fill="#008dff"/>
      <path id="Caminho_10" data-name="Caminho 10" d="M11.062,14.82A11.062,11.062,0,1,0,22.124,25.881,11.074,11.074,0,0,0,11.062,14.82m0,19.174a8.112,8.112,0,1,1,8.113-8.113,8.122,8.122,0,0,1-8.113,8.113" transform="translate(0 -8.633)" fill="#fff"/>
      <path id="Caminho_11" data-name="Caminho 11" d="M271.242,14.82A11.062,11.062,0,1,0,282.3,25.881,11.074,11.074,0,0,0,271.242,14.82m0,19.174a8.112,8.112,0,1,1,8.113-8.113,8.122,8.122,0,0,1-8.113,8.113" transform="translate(-151.557 -8.633)" fill="#fff"/>
      <path id="Caminho_12" data-name="Caminho 12" d="M127.965,14.82a11.062,11.062,0,1,0,11.062,11.061A11.074,11.074,0,0,0,127.965,14.82m0,19.174a8.112,8.112,0,1,1,8.113-8.113,8.122,8.122,0,0,1-8.113,8.113" transform="translate(-68.097 -8.633)" fill="#fff"/>
      <path id="Caminho_13" data-name="Caminho 13" d="M69.392,28.671A11.074,11.074,0,0,0,80.454,17.61V.563L77.5.59V10.1a11.059,11.059,0,1,0-8.113,18.573m0-19.174a8.112,8.112,0,1,1-8.113,8.113A8.122,8.122,0,0,1,69.392,9.5Z" transform="translate(-33.978 -0.328)" fill="#fff"/>
      <path id="Caminho_14" data-name="Caminho 14" d="M236.043,25.177a7.9,7.9,0,0,1-7.2-7.845V6.631h7.38V4.256a.97.97,0,0,0-.97-.97h-6.407V.265A.265.265,0,0,0,228.58,0H225.63a.265.265,0,0,0-.265.265V3.286h-3.883a.97.97,0,0,0-.97.97v1.4a.97.97,0,0,0,.97.97h3.878V17.436a.236.236,0,0,0,0,.039A11.373,11.373,0,0,0,236,28.671h.015a.267.267,0,0,0,.182-.072.263.263,0,0,0,.083-.193V25.438a.267.267,0,0,0-.244-.265Z" transform="translate(-128.45 0)" fill="#fff"/>
      <path id="Caminho_15" data-name="Caminho 15" d="M191.734,24.389c0-4.442-2.419-6.7-6.069-6.7-3.689,0-6.227,2.3-6.227,6.98V36.685h-3.609V14.95h3.609v3.094a8.03,8.03,0,0,1,6.98-3.491c5.037,0,8.885,3.094,8.885,9.321V36.685h-3.57Z" transform="translate(-102.422 -8.477)" fill="#fff"/>
    </g>
  </g>
</svg>
