<?xml version="1.0" encoding="UTF-8"?>
<svg id="Camada_1" data-name="Camada 1" xmlns="http://www.w3.org/2000/svg" xmlns:xlink="http://www.w3.org/1999/xlink" viewBox="0 0 170.34 28.68">
  <defs>
    <style>
      .cls-1 {
        fill: none;
      }

      .cls-1, .cls-2 {
        stroke-width: 0px;
      }

      .cls-2 {
        fill: #fff;
      }

      .cls-3 {
        clip-path: url(#clippath);
      }
    </style>
    <clipPath id="clippath">
      <rect class="cls-1" y="0" width="168" height="28.67"/>
    </clipPath>
  </defs>
  <g class="cls-3">
    <g id="Grupo_4" data-name="Grupo 4">
      <path id="Caminho_8" data-name="Caminho 8" class="cls-2" d="m170.29.25c-.06-.1-.17-.15-.28-.15h-2.45c-.13,0-.25.08-.3.2l-10.13,22.89-3.68-8.71c-.62-1.47-1.35-3.28-1.98-4.86-.05-.12-.17-.21-.31-.21h-2.61c-.11,0-.21.06-.28.15-.06.09-.07.21-.03.31l7.44,17.84c.24.57.79.94,1.41.93h.03c.32,0,.64-.09.9-.27.24-.17.43-.4.54-.67l8.54-20.2,3.2-6.94c.05-.1.04-.22-.02-.32h0Z"/>
      <path id="Caminho_9" data-name="Caminho 9" class="cls-2" d="m151.01,25.18c-4.07-.36-7.19-3.76-7.2-7.84V6.63h7.38v-2.38c0-.54-.43-.97-.97-.97h-6.41V.27C143.81.12,143.69,0,143.54,0c0,0,0,0,0,0h-2.95c-.15,0-.27.12-.27.26h0v3.02h-3.88c-.54,0-.97.43-.97.97h0v1.4c0,.54.43.97.97.97h3.88v10.81s0,.03,0,.04c.08,5.94,4.71,10.82,10.64,11.2h.02c.07,0,.13-.03.18-.07.05-.05.08-.12.08-.19v-2.97c0-.14-.11-.25-.24-.26h0Z"/>
      <path id="Caminho_10" data-name="Caminho 10" class="cls-2" d="m13.41,6.19c-6.11,0-11.06,4.95-11.06,11.06s4.95,11.06,11.06,11.06,11.06-4.95,11.06-11.06h0c0-6.11-4.96-11.06-11.06-11.06m0,19.17c-4.48,0-8.11-3.63-8.11-8.11s3.63-8.11,8.11-8.11c4.48,0,8.11,3.63,8.11,8.11,0,4.48-3.63,8.11-8.11,8.11"/>
      <path id="Caminho_11" data-name="Caminho 11" class="cls-2" d="m122.03,6.19c-6.11,0-11.06,4.95-11.07,11.06,0,6.11,4.95,11.06,11.06,11.07,6.11,0,11.06-4.95,11.07-11.06h0c0-6.11-4.95-11.06-11.06-11.07m0,19.17c-4.48,0-8.11-3.63-8.11-8.11s3.63-8.11,8.11-8.11c4.48,0,8.11,3.63,8.11,8.11,0,4.48-3.63,8.11-8.11,8.11"/>
      <path id="Caminho_12" data-name="Caminho 12" class="cls-2" d="m62.21,6.19c-6.11,0-11.06,4.95-11.06,11.06s4.95,11.06,11.06,11.06c6.11,0,11.06-4.95,11.06-11.06h0c0-6.11-4.96-11.06-11.06-11.06m0,19.17c-4.48,0-8.11-3.63-8.11-8.11s3.63-8.11,8.11-8.11c4.48,0,8.11,3.63,8.11,8.11,0,4.48-3.63,8.11-8.11,8.11"/>
      <path id="Caminho_13" data-name="Caminho 13" class="cls-2" d="m37.76,28.34c6.11,0,11.05-4.95,11.06-11.06V.24l-2.95.03v9.51c-4.15-4.48-11.15-4.75-15.63-.6-4.48,4.15-4.75,11.15-.6,15.63,2.09,2.26,5.03,3.55,8.12,3.55m0-19.17c4.48,0,8.11,3.63,8.11,8.11,0,4.48-3.63,8.11-8.11,8.11-4.48,0-8.11-3.63-8.11-8.11,0-4.48,3.64-8.11,8.12-8.11h0Z"/>
      <path id="Caminho_14" data-name="Caminho 14" class="cls-2" d="m109.94,25.18c-4.07-.36-7.19-3.76-7.2-7.84V6.63h7.38v-2.38c0-.54-.43-.97-.97-.97h-6.41V.27C102.74.12,102.62,0,102.48,0c0,0,0,0,0,0h-2.95c-.15,0-.26.12-.26.26v3.02h-3.88c-.54,0-.97.43-.97.97h0v1.4c0,.54.43.97.97.97h3.88v10.81s0,.03,0,.04c.08,5.94,4.71,10.81,10.64,11.2h.01c.07,0,.13-.03.18-.07.05-.05.08-.12.08-.19v-2.97c0-.14-.11-.25-.24-.26h0Z"/>
      <path id="Caminho_15" data-name="Caminho 15" class="cls-2" d="m91.66,15.91c0-4.44-2.42-6.7-6.07-6.7s-6.23,2.3-6.23,6.98v12.02h-3.61V6.47h3.61v3.09c1.57-2.29,4.21-3.61,6.98-3.49,5.04,0,8.88,3.09,8.88,9.32v12.81h-3.57v-12.3Z"/>
    </g>
  </g>
</svg>