<svg id="_6ada49f008aabe9eb51207157c15f11d" data-name=" 6ada49f008aabe9eb51207157c15f11d" xmlns="http://www.w3.org/2000/svg" viewBox="0 0 30.59 28.39"><defs><style>.cls-1{fill:#fff;fill-rule:evenodd;}</style></defs><title>botao-flutuante2</title><path id="Caminho_192" data-name="Caminho 192" class="cls-1" d="M-68.79,16.54c-.56-1.25-1.15-1.28-1.69-1.3s-.94,0-1.44,0a2.78,2.78,0,0,0-2,1,8.46,8.46,0,0,0-2.64,6.28c0,3.7,2.7,7.28,3.08,7.79s5.21,8.35,12.86,11.37c6.37,2.5,7.66,2,9,1.88s4.46-1.82,5.09-3.58a6.37,6.37,0,0,0,.44-3.58c-.19-.32-.7-.5-1.45-.88S-52,33.25-52.65,33s-1.2-.38-1.7.38-1.95,2.45-2.38,2.95-.88.56-1.64.19a20.55,20.55,0,0,1-6.05-3.74,22.47,22.47,0,0,1-4.19-5.22c-.44-.75,0-1.16.33-1.53s.75-.88,1.13-1.32a5.19,5.19,0,0,0,.75-1.26,1.4,1.4,0,0,0-.06-1.32C-66.65,21.76-68.11,18-68.79,16.54Z" transform="translate(76.57 -15.22)"/></svg>